<?xml version="1.0" encoding="UTF-8"?>
<svg xmlns="http://www.w3.org/2000/svg" xmlns:xlink="http://www.w3.org/1999/xlink" width="1280px" height="720px" viewBox="0 0 1280 720" version="1.1">
<g id="surface1">
<path style=" stroke:none;fill-rule:nonzero;fill:rgb(100%,100%,100%);fill-opacity:1;" d="M 0 0.0429688 L 1280 0.0429688 L 1280 719.957031 L 0 719.957031 Z M 0 0.0429688 "/>
<path style=" stroke:none;fill-rule:nonzero;fill:rgb(86.27451%,95.686275%,100%);fill-opacity:1;" d="M 122.835938 542.117188 C 139.796875 488.300781 139.214844 476.808594 120.300781 432.726562 C 102.765625 391.851562 68.933594 294.664062 124.480469 208.832031 C 181.519531 120.691406 265.550781 120.035156 325.023438 132.140625 C 368.671875 141.023438 428.386719 136 502.183594 108.746094 C 575.980469 81.492188 709.445312 38.175781 846.132812 82.109375 C 964.3125 120.097656 970.265625 180.164062 1017.640625 213.550781 C 1065.015625 246.933594 1118.027344 235.046875 1162.71875 312.742188 C 1207.375 390.382812 1199.007812 589.890625 1038.375 636.003906 C 799.324219 704.625 731.683594 572.398438 602.484375 622.859375 C 473.289062 673.324219 240.574219 652.351562 240.574219 652.351562 C 240.574219 652.351562 92.203125 639.320312 122.835938 542.117188 Z M 122.835938 542.117188 "/>
<path style=" stroke:none;fill-rule:nonzero;fill:rgb(28.627451%,14.901961%,24.313725%);fill-opacity:1;" d="M 513.074219 516.394531 C 513.0625 516.394531 513.046875 516.394531 513.03125 516.390625 C 512.15625 516.375 511.46875 515.898438 511.496094 515.324219 C 513.589844 467.886719 502.632812 251.230469 491.941406 154.113281 C 491.878906 153.542969 492.535156 153.046875 493.40625 153.007812 C 494.265625 152.960938 495.035156 153.394531 495.097656 153.964844 C 505.789062 251.125 516.753906 467.910156 514.65625 515.386719 C 514.628906 515.949219 513.925781 516.394531 513.074219 516.394531 Z M 513.074219 516.394531 "/>
<path style=" stroke:none;fill-rule:nonzero;fill:rgb(28.627451%,14.901961%,24.313725%);fill-opacity:1;" d="M 717.078125 552.375 C 717.078125 552.375 717.050781 552.375 717.039062 552.375 C 716.164062 552.359375 715.476562 551.886719 715.496094 551.3125 C 715.589844 548.800781 724.371094 298.234375 695.265625 154.097656 C 695.152344 153.53125 695.757812 153.007812 696.625 152.933594 C 697.503906 152.855469 698.285156 153.257812 698.398438 153.824219 C 727.539062 298.121094 718.75 548.847656 718.65625 551.363281 C 718.636719 551.925781 717.933594 552.375 717.078125 552.375 Z M 717.078125 552.375 "/>
<path style=" stroke:none;fill-rule:nonzero;fill:rgb(28.627451%,14.901961%,24.313725%);fill-opacity:1;" d="M 372.988281 401.691406 C 372.214844 401.691406 371.539062 401.316406 371.425781 400.800781 C 371.300781 400.234375 371.902344 399.707031 372.765625 399.628906 C 540.011719 383.964844 733.359375 392.554688 837.234375 397.167969 C 864.511719 398.382812 886.058594 399.339844 900.742188 399.617188 C 901.617188 399.632812 902.304688 400.113281 902.277344 400.683594 C 902.25 401.257812 901.496094 401.71875 900.652344 401.691406 C 885.90625 401.410156 864.332031 400.453125 837.019531 399.238281 C 733.265625 394.628906 540.132812 386.046875 373.214844 401.679688 C 373.136719 401.6875 373.0625 401.691406 372.988281 401.691406 Z M 372.988281 401.691406 "/>
<path style=" stroke:none;fill-rule:nonzero;fill:rgb(28.627451%,14.901961%,24.313725%);fill-opacity:1;" d="M 349.566406 281.554688 C 348.792969 281.554688 348.117188 281.183594 348.003906 280.664062 C 347.882812 280.097656 348.480469 279.574219 349.347656 279.492188 C 569.121094 258.917969 926.835938 257.492188 930.421875 257.480469 L 930.429688 257.480469 C 931.300781 257.480469 932.007812 257.9375 932.011719 258.507812 C 932.015625 259.082031 931.3125 259.546875 930.4375 259.550781 C 926.851562 259.5625 569.351562 260.988281 349.792969 281.542969 C 349.71875 281.550781 349.640625 281.554688 349.566406 281.554688 Z M 349.566406 281.554688 "/>
<path style=" stroke:none;fill-rule:nonzero;fill:rgb(100%,25.882353%,30.196078%);fill-opacity:1;" d="M 550.335938 369.207031 C 549.566406 369.207031 548.792969 369.039062 548.15625 368.695312 C 546.699219 367.90625 546.488281 366.492188 547.691406 365.53125 C 548.40625 364.964844 619.320312 308.597656 646.460938 288.515625 C 647.714844 287.589844 649.882812 287.503906 651.296875 288.324219 C 652.714844 289.148438 652.84375 290.570312 651.589844 291.496094 C 624.527344 311.515625 553.691406 367.824219 552.980469 368.390625 C 552.304688 368.929688 551.324219 369.207031 550.335938 369.207031 Z M 550.335938 369.207031 "/>
<path style=" stroke:none;fill-rule:nonzero;fill:rgb(100%,25.882353%,30.196078%);fill-opacity:1;" d="M 669.578125 370.667969 C 668.960938 370.667969 668.335938 370.558594 667.769531 370.328125 C 666.078125 369.636719 625.367188 352.738281 547.820312 297.710938 C 546.535156 296.796875 546.621094 295.378906 548.011719 294.535156 C 549.402344 293.695312 551.570312 293.75 552.855469 294.660156 C 629.636719 349.144531 670.988281 366.347656 671.398438 366.515625 C 673.003906 367.171875 673.492188 368.558594 672.492188 369.609375 C 671.839844 370.292969 670.722656 370.667969 669.578125 370.667969 Z M 669.578125 370.667969 "/>
<path style=" stroke:none;fill-rule:nonzero;fill:rgb(100%,25.882353%,30.196078%);fill-opacity:1;" d="M 771.71875 366.992188 C 770.949219 366.992188 770.175781 366.824219 769.539062 366.480469 C 768.078125 365.691406 767.871094 364.273438 769.074219 363.316406 C 769.789062 362.75 840.703125 306.378906 867.84375 286.300781 C 869.097656 285.371094 871.265625 285.289062 872.679688 286.109375 C 874.097656 286.933594 874.226562 288.351562 872.972656 289.28125 C 845.910156 309.300781 775.074219 365.609375 774.363281 366.175781 C 773.6875 366.714844 772.707031 366.992188 771.71875 366.992188 Z M 771.71875 366.992188 "/>
<path style=" stroke:none;fill-rule:nonzero;fill:rgb(100%,25.882353%,30.196078%);fill-opacity:1;" d="M 890.960938 368.453125 C 890.34375 368.453125 889.71875 368.34375 889.152344 368.113281 C 887.457031 367.421875 846.75 350.523438 769.203125 295.496094 C 767.917969 294.582031 768.003906 293.160156 769.394531 292.320312 C 770.785156 291.480469 772.953125 291.535156 774.234375 292.445312 C 851.019531 346.929688 892.371094 364.132812 892.777344 364.300781 C 894.382812 364.957031 894.875 366.34375 893.871094 367.394531 C 893.222656 368.078125 892.105469 368.453125 890.960938 368.453125 Z M 890.960938 368.453125 "/>
<path style=" stroke:none;fill-rule:nonzero;fill:rgb(100%,25.882353%,30.196078%);fill-opacity:1;" d="M 540.054688 241.957031 C 539.289062 241.957031 538.515625 241.789062 537.878906 241.445312 C 536.417969 240.65625 536.210938 239.242188 537.414062 238.28125 C 538.128906 237.714844 609.039062 181.347656 636.179688 161.269531 C 637.4375 160.339844 639.605469 160.253906 641.019531 161.078125 C 642.433594 161.898438 642.566406 163.320312 641.3125 164.25 C 614.25 184.269531 543.414062 240.574219 542.703125 241.140625 C 542.023438 241.679688 541.042969 241.957031 540.054688 241.957031 Z M 540.054688 241.957031 "/>
<path style=" stroke:none;fill-rule:nonzero;fill:rgb(100%,25.882353%,30.196078%);fill-opacity:1;" d="M 659.300781 243.417969 C 658.679688 243.417969 658.054688 243.308594 657.492188 243.078125 C 655.796875 242.386719 615.089844 225.488281 537.542969 170.460938 C 536.257812 169.550781 536.34375 168.128906 537.734375 167.285156 C 539.125 166.445312 541.292969 166.5 542.574219 167.414062 C 619.355469 221.894531 660.710938 239.097656 661.117188 239.265625 C 662.722656 239.925781 663.214844 241.308594 662.210938 242.363281 C 661.5625 243.042969 660.445312 243.417969 659.300781 243.417969 Z M 659.300781 243.417969 "/>
<path style=" stroke:none;fill-rule:nonzero;fill:rgb(100%,25.882353%,30.196078%);fill-opacity:1;" d="M 372.988281 506.746094 C 372.222656 506.746094 371.449219 506.578125 370.808594 506.230469 C 369.351562 505.441406 369.140625 504.027344 370.347656 503.070312 C 371.058594 502.503906 441.972656 446.132812 469.113281 426.054688 C 470.371094 425.125 472.535156 425.039062 473.949219 425.863281 C 475.367188 426.6875 475.5 428.105469 474.242188 429.035156 C 447.179688 449.054688 376.347656 505.359375 375.632812 505.925781 C 374.957031 506.464844 373.976562 506.746094 372.988281 506.746094 Z M 372.988281 506.746094 "/>
<path style=" stroke:none;fill-rule:nonzero;fill:rgb(100%,25.882353%,30.196078%);fill-opacity:1;" d="M 492.230469 508.207031 C 491.613281 508.207031 490.988281 508.09375 490.421875 507.863281 C 488.730469 507.171875 448.019531 490.273438 370.472656 435.246094 C 369.191406 434.335938 369.273438 432.914062 370.664062 432.074219 C 372.054688 431.230469 374.222656 431.289062 375.507812 432.199219 C 452.289062 486.679688 493.640625 503.886719 494.050781 504.050781 C 495.65625 504.710938 496.144531 506.09375 495.144531 507.148438 C 494.492188 507.828125 493.375 508.207031 492.230469 508.207031 Z M 492.230469 508.207031 "/>
<path style=" stroke:none;fill-rule:nonzero;fill:rgb(29.803922%,71.764706%,84.705882%);fill-opacity:1;" d="M 817.777344 241.484375 C 805.789062 241.484375 794.824219 238.421875 786.101562 232.511719 C 770.457031 221.914062 764.242188 203.703125 770.988281 188.226562 C 776.789062 174.917969 790.984375 165.789062 810.964844 162.515625 C 812.796875 162.214844 814.664062 162.945312 815.121094 164.148438 C 815.582031 165.351562 814.464844 166.570312 812.628906 166.871094 C 795.125 169.742188 782.675781 177.761719 777.574219 189.460938 C 771.46875 203.46875 777 219.886719 791.023438 229.386719 C 797.992188 234.105469 810.125 239.101562 828.355469 236.105469 C 848.136719 232.851562 855.191406 224.300781 857.625 217.703125 C 862.261719 205.121094 853.90625 188.371094 838.605469 179.578125 C 832.132812 175.859375 821.835938 172.082031 809.515625 175.195312 C 807.75 175.644531 805.769531 175.066406 805.085938 173.910156 C 804.40625 172.75 805.285156 171.453125 807.050781 171.003906 C 819.160156 167.941406 831.96875 169.789062 843.121094 176.199219 C 860.457031 186.164062 869.554688 204.460938 864.285156 218.757812 C 860.21875 229.789062 848.050781 237.5 830.023438 240.460938 C 825.855469 241.148438 821.757812 241.484375 817.777344 241.484375 Z M 817.777344 241.484375 "/>
<path style=" stroke:none;fill-rule:nonzero;fill:rgb(29.803922%,71.764706%,84.705882%);fill-opacity:1;" d="M 610.707031 489.945312 C 598.71875 489.945312 587.753906 486.878906 579.03125 480.96875 C 563.382812 470.371094 557.167969 452.160156 563.914062 436.6875 C 569.714844 423.378906 583.914062 414.25 603.894531 410.972656 C 605.726562 410.671875 607.59375 411.402344 608.050781 412.609375 C 608.511719 413.8125 607.394531 415.03125 605.558594 415.332031 C 588.054688 418.203125 575.605469 426.222656 570.503906 437.921875 C 564.398438 451.925781 569.929688 468.34375 583.953125 477.84375 C 590.921875 482.566406 603.054688 487.5625 621.285156 484.5625 C 641.070312 481.3125 648.121094 472.761719 650.554688 466.164062 C 655.191406 453.578125 646.835938 436.832031 631.535156 428.035156 C 625.0625 424.316406 614.769531 420.539062 602.449219 423.65625 C 600.679688 424.101562 598.699219 423.527344 598.019531 422.367188 C 597.335938 421.210938 598.214844 419.910156 599.980469 419.464844 C 612.089844 416.402344 624.898438 418.246094 636.050781 424.660156 C 653.386719 434.621094 662.484375 452.917969 657.214844 467.21875 C 653.148438 478.25 640.980469 485.957031 622.953125 488.921875 C 618.785156 489.605469 614.6875 489.945312 610.707031 489.945312 Z M 610.707031 489.945312 "/>
<path style=" stroke:none;fill-rule:nonzero;fill:rgb(29.803922%,71.764706%,84.705882%);fill-opacity:1;" d="M 433.359375 369.863281 C 421.371094 369.863281 410.40625 366.800781 401.683594 360.890625 C 386.039062 350.289062 379.824219 332.082031 386.566406 316.605469 C 392.367188 303.296875 406.566406 294.167969 426.546875 290.890625 C 428.382812 290.589844 430.246094 291.324219 430.703125 292.527344 C 431.164062 293.730469 430.046875 294.949219 428.210938 295.25 C 410.707031 298.121094 398.257812 306.140625 393.15625 317.839844 C 387.050781 331.847656 392.582031 348.265625 406.609375 357.765625 C 413.574219 362.484375 425.707031 367.480469 443.9375 364.484375 C 463.722656 361.230469 470.773438 352.679688 473.207031 346.082031 C 477.84375 333.496094 469.488281 316.75 454.183594 307.953125 C 447.71875 304.238281 437.421875 300.457031 425.097656 303.574219 C 423.332031 304.019531 421.351562 303.445312 420.667969 302.289062 C 419.988281 301.128906 420.867188 299.828125 422.632812 299.382812 C 434.734375 296.320312 447.550781 298.164062 458.703125 304.578125 C 476.039062 314.539062 485.136719 332.835938 479.867188 347.136719 C 475.800781 358.167969 463.632812 365.875 445.605469 368.839844 C 441.4375 369.523438 437.339844 369.863281 433.359375 369.863281 Z M 433.359375 369.863281 "/>
<path style=" stroke:none;fill-rule:nonzero;fill:rgb(89.019608%,41.568627%,27.058824%);fill-opacity:1;" d="M 916.429688 498.71875 C 886.402344 498.101562 945.984375 556.835938 945.984375 556.835938 C 945.984375 556.835938 981.355469 568.308594 984.582031 558.039062 C 987.808594 547.773438 992.085938 488.730469 989.453125 487.46875 C 989.453125 487.46875 946.457031 499.335938 916.429688 498.71875 Z M 916.429688 498.71875 "/>
<path style=" stroke:none;fill-rule:nonzero;fill:rgb(89.019608%,41.568627%,27.058824%);fill-opacity:1;" d="M 921.847656 573.660156 L 918.121094 563.273438 L 898.511719 575.863281 C 899.738281 575.875 921.847656 573.660156 921.847656 573.660156 Z M 921.847656 573.660156 "/>
<path style=" stroke:none;fill-rule:nonzero;fill:rgb(98.823529%,30.980392%,40.784314%);fill-opacity:1;" d="M 869.894531 568.339844 C 868.664062 569.703125 873.304688 573.925781 874.675781 574.765625 C 876.050781 575.605469 892.890625 573.492188 892.890625 573.492188 L 886.296875 560.625 C 886.296875 560.625 871.125 566.972656 869.894531 568.339844 Z M 869.894531 568.339844 "/>
<path style=" stroke:none;fill-rule:nonzero;fill:rgb(89.019608%,41.568627%,27.058824%);fill-opacity:1;" d="M 879.703125 569.667969 C 879.882812 576.988281 907.339844 577.703125 917.410156 572.4375 C 927.480469 567.175781 916.285156 549.019531 916.285156 549.019531 C 916.285156 549.019531 879.386719 556.613281 879.703125 569.667969 Z M 879.703125 569.667969 "/>
<path style=" stroke:none;fill-rule:nonzero;fill:rgb(0%,0%,0%);fill-opacity:1;" d="M 897.828125 554.613281 L 897.148438 553.960938 C 896.367188 554.308594 878.046875 562.601562 879.050781 569.148438 C 880.066406 575.769531 895.347656 576.570312 895.976562 576.625 L 896.132812 575.839844 C 895.988281 575.828125 881.171875 575.066406 880.253906 569.066406 C 879.320312 562.984375 897.640625 554.695312 897.828125 554.613281 Z M 897.828125 554.613281 "/>
<path style=" stroke:none;fill-rule:nonzero;fill:rgb(0%,0%,0%);fill-opacity:1;" d="M 886.625 560.957031 L 885.96875 560.292969 C 885.929688 560.308594 881.859375 562.039062 877.824219 563.84375 C 869.449219 567.59375 869.359375 568.007812 869.296875 568.28125 C 869.089844 569.226562 870.769531 573.183594 874.296875 575.070312 L 875.0625 574.460938 C 871.886719 572.757812 870.410156 569.183594 870.488281 568.4375 C 870.492188 568.433594 870.496094 568.429688 870.5 568.425781 C 871.277344 567.691406 879.316406 564.058594 886.625 560.957031 Z M 886.625 560.957031 "/>
<path style=" stroke:none;fill-rule:nonzero;fill:rgb(89.019608%,41.568627%,27.058824%);fill-opacity:1;" d="M 928.8125 590.03125 L 926.421875 583.359375 L 913.828125 591.441406 C 914.617188 591.449219 928.8125 590.03125 928.8125 590.03125 Z M 928.8125 590.03125 "/>
<path style=" stroke:none;fill-rule:nonzero;fill:rgb(98.823529%,30.980392%,40.784314%);fill-opacity:1;" d="M 895.453125 586.609375 C 894.664062 587.488281 897.644531 590.199219 898.527344 590.738281 C 899.40625 591.277344 910.21875 589.917969 910.21875 589.917969 L 905.988281 581.65625 C 905.988281 581.65625 896.246094 585.734375 895.453125 586.609375 Z M 895.453125 586.609375 "/>
<path style=" stroke:none;fill-rule:nonzero;fill:rgb(89.019608%,41.568627%,27.058824%);fill-opacity:1;" d="M 901.753906 587.464844 C 901.867188 592.164062 919.496094 592.625 925.964844 589.242188 C 932.429688 585.863281 925.242188 574.207031 925.242188 574.207031 C 925.242188 574.207031 901.550781 579.082031 901.753906 587.464844 Z M 901.753906 587.464844 "/>
<path style=" stroke:none;fill-rule:nonzero;fill:rgb(0%,0%,0%);fill-opacity:1;" d="M 913.390625 577.796875 L 912.953125 577.378906 C 912.453125 577.601562 900.691406 582.925781 901.332031 587.128906 C 901.984375 591.382812 911.796875 591.894531 912.199219 591.929688 L 912.304688 591.425781 C 912.210938 591.417969 902.695312 590.933594 902.105469 587.078125 C 901.507812 583.175781 913.269531 577.851562 913.390625 577.796875 Z M 913.390625 577.796875 "/>
<path style=" stroke:none;fill-rule:nonzero;fill:rgb(0%,0%,0%);fill-opacity:1;" d="M 906.199219 581.871094 L 905.777344 581.445312 C 905.75 581.457031 903.136719 582.566406 900.546875 583.726562 C 895.167969 586.132812 895.109375 586.398438 895.070312 586.574219 C 894.9375 587.179688 896.015625 589.722656 898.28125 590.933594 L 898.773438 590.542969 C 896.734375 589.449219 895.785156 587.152344 895.835938 586.671875 C 895.835938 586.671875 895.839844 586.667969 895.84375 586.667969 C 896.34375 586.195312 901.503906 583.863281 906.199219 581.871094 Z M 906.199219 581.871094 "/>
<path style=" stroke:none;fill-rule:nonzero;fill:rgb(89.019608%,41.568627%,27.058824%);fill-opacity:1;" d="M 911.710938 546.824219 L 910.054688 536.207031 L 888.136719 547.035156 C 889.351562 547.152344 911.710938 546.824219 911.710938 546.824219 Z M 911.710938 546.824219 "/>
<path style=" stroke:none;fill-rule:nonzero;fill:rgb(98.823529%,30.980392%,40.784314%);fill-opacity:1;" d="M 861.234375 537.160156 C 859.746094 538.410156 863.519531 542.988281 864.714844 543.9375 C 865.910156 544.886719 883.027344 544.210938 883.027344 544.210938 L 879.015625 530.894531 C 879.015625 530.894531 862.726562 535.910156 861.234375 537.160156 Z M 861.234375 537.160156 "/>
<path style=" stroke:none;fill-rule:nonzero;fill:rgb(89.019608%,41.568627%,27.058824%);fill-opacity:1;" d="M 870.703125 539.308594 C 869.441406 546.582031 896.527344 549.605469 907.550781 545.234375 C 918.570312 540.863281 911.03125 521.917969 911.03125 521.917969 C 911.03125 521.917969 872.949219 526.332031 870.703125 539.308594 Z M 870.703125 539.308594 "/>
<path style=" stroke:none;fill-rule:nonzero;fill:rgb(0%,0%,0%);fill-opacity:1;" d="M 891.628906 525.90625 L 891.082031 525.199219 C 890.242188 525.480469 870.445312 532.15625 870.15625 538.734375 C 869.863281 545.386719 884.859375 547.46875 885.472656 547.574219 L 885.78125 546.8125 C 885.640625 546.789062 871.097656 544.785156 871.363281 538.757812 C 871.632812 532.648438 891.429688 525.972656 891.628906 525.90625 Z M 891.628906 525.90625 "/>
<path style=" stroke:none;fill-rule:nonzero;fill:rgb(0%,0%,0%);fill-opacity:1;" d="M 861.816406 537.296875 C 862.734375 536.632812 871.421875 533.710938 879.277344 531.25 L 878.753906 530.535156 C 878.710938 530.550781 874.339844 531.921875 869.980469 533.371094 C 860.941406 536.382812 860.769531 536.785156 860.65625 537.054688 C 860.261719 537.972656 861.152344 542.035156 864.277344 544.207031 L 865.15625 543.664062 C 862.34375 541.710938 861.578125 538.042969 861.804688 537.304688 C 861.808594 537.300781 861.8125 537.300781 861.816406 537.296875 Z M 861.816406 537.296875 "/>
<path style=" stroke:none;fill-rule:nonzero;fill:rgb(0%,0%,0%);fill-opacity:1;" d="M 1010.238281 468.027344 L 1011.253906 467.820312 L 1027.996094 502.835938 L 1026.980469 503.046875 Z M 1010.238281 468.027344 "/>
<path style=" stroke:none;fill-rule:nonzero;fill:rgb(98.823529%,56.862745%,40.784314%);fill-opacity:1;" d="M 936.433594 609.796875 L 951.609375 719.957031 L 1094.226562 719.957031 L 1065.292969 619.953125 L 1063.3125 608.34375 Z M 936.433594 609.796875 "/>
<path style=" stroke:none;fill-rule:nonzero;fill:rgb(99.607843%,62.352941%,45.098039%);fill-opacity:1;" d="M 960.492188 463.402344 L 960.742188 463.390625 C 960.734375 461.863281 960.683594 454.425781 960.492188 463.402344 Z M 960.492188 463.402344 "/>
<path style=" stroke:none;fill-rule:nonzero;fill:rgb(99.607843%,62.352941%,45.098039%);fill-opacity:1;" d="M 903.46875 484.425781 L 903.691406 484.144531 L 892.988281 478.769531 L 892.707031 479.007812 Z M 903.46875 484.425781 "/>
<path style=" stroke:none;fill-rule:nonzero;fill:rgb(98.823529%,56.862745%,40.784314%);fill-opacity:1;" d="M 1063.65625 574.664062 C 1063.570312 580.847656 1063.480469 587.34375 1063.386719 593.386719 C 1062.90625 625.199219 1062.355469 652.816406 1062.355469 652.816406 L 956.167969 666.453125 C 956.167969 666.453125 934.328125 599.71875 924.378906 583.554688 C 914.433594 567.394531 882.238281 480.480469 882.238281 480.480469 L 890.589844 478.296875 L 891.050781 478.175781 L 892.300781 478.808594 L 892.707031 479.007812 L 895.035156 480.179688 L 895.046875 480.183594 L 895.054688 480.191406 L 895.082031 480.203125 L 900.742188 475.363281 L 906.636719 476.601562 L 907.824219 477.117188 L 908.992188 477.464844 C 912.738281 479.03125 917.785156 481.871094 924.019531 486.972656 C 924.550781 487.410156 925.085938 487.882812 925.621094 488.386719 C 925.84375 488.597656 926.070312 488.8125 926.292969 489.035156 C 929.183594 491.894531 932.09375 495.652344 934.886719 499.824219 C 935.023438 500.027344 935.160156 500.230469 935.292969 500.4375 C 935.433594 500.640625 935.566406 500.84375 935.699219 501.050781 C 936.320312 502 936.933594 502.96875 937.539062 503.949219 C 937.722656 504.242188 937.898438 504.53125 938.078125 504.820312 C 938.214844 505.046875 938.355469 505.269531 938.488281 505.496094 C 947.617188 520.644531 954.777344 538.039062 954.777344 538.039062 C 958.476562 535.679688 963.824219 530.238281 962.617188 518.6875 L 1022.207031 551.382812 C 1022.207031 551.382812 1063.65625 574.660156 1063.65625 574.664062 Z M 1063.65625 574.664062 "/>
<path style=" stroke:none;fill-rule:nonzero;fill:rgb(99.607843%,62.352941%,45.098039%);fill-opacity:1;" d="M 1063.773438 565.820312 C 1063.773438 565.820312 1063.773438 565.820312 1063.773438 565.824219 L 1063.769531 565.820312 Z M 1063.773438 565.820312 "/>
<path style=" stroke:none;fill-rule:nonzero;fill:rgb(98.823529%,56.862745%,40.784314%);fill-opacity:1;" d="M 1063.996094 544.742188 L 1063.460938 544.445312 L 964.714844 489.289062 C 964.714844 488.902344 960.683594 464.570312 960.738281 463.71875 C 960.746094 463.671875 960.746094 463.648438 960.746094 463.648438 C 960.746094 463.648438 960.621094 463.648438 960.390625 463.644531 C 958.976562 463.625 953.457031 463.550781 945.828125 463.386719 C 945.703125 463.382812 945.585938 463.382812 945.460938 463.378906 C 945.21875 463.375 944.976562 463.371094 944.730469 463.363281 C 937.84375 463.210938 929.382812 462.992188 920.722656 462.683594 C 919.425781 462.632812 918.117188 462.585938 916.816406 462.53125 L 916.144531 462.160156 L 886.664062 445.695312 L 886.109375 445.386719 C 919.113281 442.90625 981.660156 438.304688 985.605469 438.691406 C 990.992188 439.226562 1008.488281 462.699219 1015.082031 475.296875 C 1021.671875 487.890625 1062.253906 487.453125 1063.695312 500.164062 C 1064.167969 504.359375 1064.1875 522.425781 1063.996094 544.742188 Z M 1063.996094 544.742188 "/>
<path style=" stroke:none;fill-rule:nonzero;fill:rgb(0%,0%,0%);fill-opacity:1;" d="M 865.625 446.585938 L 865.9375 446.5625 L 865.519531 446.882812 C 865.53125 446.851562 865.535156 446.832031 865.539062 446.824219 Z M 865.625 446.585938 "/>
<path style=" stroke:none;fill-rule:nonzero;fill:rgb(0%,0%,0%);fill-opacity:1;" d="M 961.296875 463.308594 L 961.277344 463.664062 C 961.277344 463.6875 961.089844 463.707031 960.738281 463.71875 C 957.234375 463.863281 937.164062 463.589844 917.390625 462.855469 L 916.8125 462.53125 L 916.140625 462.160156 C 938.132812 463.027344 960.421875 463.300781 960.753906 463.304688 Z M 961.296875 463.308594 "/>
<path style=" stroke:none;fill-rule:nonzero;fill:rgb(0%,0%,0%);fill-opacity:1;" d="M 1064.519531 545.039062 C 1064.519531 545.207031 1064.511719 545.375 1064.519531 545.542969 C 1064.511719 545.710938 1064.511719 545.882812 1064.511719 546.054688 C 1064.484375 548.882812 1064.453125 551.769531 1064.425781 554.695312 C 1064.417969 555.078125 1064.414062 555.460938 1064.414062 555.84375 C 1064.386719 558.601562 1064.351562 561.390625 1064.316406 564.195312 C 1064.316406 564.382812 1064.3125 564.570312 1064.3125 564.761719 C 1064.304688 564.972656 1064.304688 565.191406 1064.300781 565.40625 C 1064.300781 565.644531 1064.296875 565.878906 1064.292969 566.117188 C 1064.257812 569.15625 1064.21875 572.207031 1064.171875 575.25 L 1064.171875 575.253906 C 1064.09375 581.390625 1064.003906 587.492188 1063.917969 593.390625 L 1063.390625 593.386719 L 1062.855469 593.378906 C 1062.949219 587.296875 1063.039062 580.996094 1063.128906 574.664062 C 1063.160156 571.855469 1063.195312 569.042969 1063.230469 566.234375 C 1063.234375 566.019531 1063.234375 565.804688 1063.242188 565.585938 L 1063.242188 565.523438 C 1063.246094 565.355469 1063.246094 565.191406 1063.246094 565.023438 C 1063.28125 562.21875 1063.3125 559.425781 1063.34375 556.667969 C 1063.355469 555.808594 1063.363281 554.957031 1063.375 554.109375 C 1063.402344 551.175781 1063.433594 548.289062 1063.457031 545.460938 C 1063.457031 545.292969 1063.464844 545.121094 1063.464844 544.953125 L 1063.464844 544.445312 C 1063.65625 522.433594 1063.640625 504.367188 1063.167969 500.1875 C 1062.445312 493.839844 1051.550781 490.863281 1040.011719 487.710938 C 1029.113281 484.730469 1017.847656 481.652344 1014.578125 475.414062 C 1011.320312 469.183594 1005.371094 460.242188 999.417969 452.628906 C 991.785156 442.867188 987.234375 439.207031 985.527344 439.039062 C 981.679688 438.65625 919.785156 443.210938 886.664062 445.695312 L 886.109375 445.386719 L 885.550781 445.078125 C 918.511719 442.601562 981.628906 437.949219 985.683594 438.351562 C 991.699219 438.945312 1009.425781 463.421875 1015.578125 475.1875 C 1018.695312 481.125 1029.738281 484.148438 1040.421875 487.066406 C 1052.265625 490.304688 1063.457031 493.363281 1064.222656 500.140625 C 1064.707031 504.371094 1064.714844 522.746094 1064.519531 545.039062 Z M 1064.519531 545.039062 "/>
<path style=" stroke:none;fill-rule:nonzero;fill:rgb(0%,0%,0%);fill-opacity:1;" d="M 949.246094 540.628906 L 949.847656 541.203125 C 950.335938 540.988281 961.832031 535.761719 962.617188 527.992188 L 961.558594 527.945312 C 960.808594 535.375 949.363281 540.578125 949.246094 540.628906 Z M 949.246094 540.628906 "/>
<path style=" stroke:none;fill-rule:nonzero;fill:rgb(29.803922%,71.764706%,84.705882%);fill-opacity:1;" d="M 860.636719 461.265625 L 883.148438 443.945312 L 1109.226562 570.214844 L 1086.714844 587.539062 Z M 860.636719 461.265625 "/>
<path style=" stroke:none;fill-rule:nonzero;fill:rgb(24.313725%,58.431373%,69.019608%);fill-opacity:1;" d="M 867.5625 455.9375 L 876.222656 449.277344 L 1102.300781 575.546875 L 1093.640625 582.207031 Z M 867.5625 455.9375 "/>
<path style=" stroke:none;fill-rule:nonzero;fill:rgb(100%,100%,100%);fill-opacity:1;" d="M 1063.058594 574.328125 L 1085.570312 557.003906 L 1092.222656 560.722656 L 1069.714844 578.042969 Z M 1063.058594 574.328125 "/>
<path style=" stroke:none;fill-rule:nonzero;fill:rgb(100%,80.392157%,43.921569%);fill-opacity:1;" d="M 1110.085938 585.648438 C 1103.871094 590.433594 1092.917969 591.007812 1085.621094 586.933594 L 1069.734375 578.058594 L 1092.246094 560.738281 L 1108.132812 569.609375 C 1115.429688 573.6875 1116.304688 580.867188 1110.085938 585.648438 Z M 1110.085938 585.648438 "/>
<path style=" stroke:none;fill-rule:nonzero;fill:rgb(96.862745%,83.921569%,69.803922%);fill-opacity:1;" d="M 838.472656 433.941406 L 860.65625 461.277344 C 862.863281 462.511719 866.199219 462.316406 868.113281 460.84375 C 870.023438 459.371094 869.789062 457.179688 867.582031 455.949219 C 869.789062 457.179688 873.511719 456.6875 875.902344 454.847656 C 878.296875 453.007812 878.445312 450.519531 876.242188 449.285156 C 878.445312 450.515625 881.785156 450.324219 883.695312 448.851562 C 885.609375 447.378906 885.371094 445.1875 883.167969 443.957031 Z M 838.472656 433.941406 "/>
<path style=" stroke:none;fill-rule:nonzero;fill:rgb(29.803922%,71.764706%,84.705882%);fill-opacity:1;" d="M 860.65625 461.277344 C 860.65625 461.277344 868.011719 460.210938 867.582031 455.949219 L 872.292969 458.582031 L 865.367188 463.910156 Z M 860.65625 461.277344 "/>
<path style=" stroke:none;fill-rule:nonzero;fill:rgb(29.803922%,71.764706%,84.705882%);fill-opacity:1;" d="M 876.242188 449.285156 C 876.242188 449.285156 883.597656 448.21875 883.167969 443.957031 L 887.878906 446.589844 L 880.953125 451.917969 Z M 876.242188 449.285156 "/>
<path style=" stroke:none;fill-rule:nonzero;fill:rgb(24.313725%,58.431373%,69.019608%);fill-opacity:1;" d="M 867.582031 455.949219 C 867.582031 455.949219 875.769531 455.539062 876.242188 449.285156 L 881.375 452.15625 L 872.71875 458.816406 Z M 867.582031 455.949219 "/>
<path style=" stroke:none;fill-rule:nonzero;fill:rgb(29.803922%,71.764706%,84.705882%);fill-opacity:1;" d="M 845.839844 443.019531 C 845.839844 443.019531 852.410156 442.144531 853.316406 437.265625 L 838.472656 433.941406 Z M 845.839844 443.019531 "/>
<path style=" stroke:none;fill-rule:nonzero;fill:rgb(0%,0%,0%);fill-opacity:1;" d="M 1110.539062 585.902344 C 1116.46875 581.292969 1115.597656 577.019531 1113.820312 574.246094 C 1111.910156 571.265625 1108.65625 569.394531 1108.519531 569.316406 L 883.464844 443.613281 L 883.359375 443.589844 L 837.246094 433.257812 L 851.535156 450.863281 L 852.578125 450.5 L 839.699219 434.625 L 882.871094 444.296875 L 1107.75 569.90625 C 1107.777344 569.921875 1110.949219 571.75 1112.746094 574.570312 C 1115.125 578.308594 1114.078125 581.949219 1109.636719 585.402344 Z M 1110.539062 585.902344 "/>
<path style=" stroke:none;fill-rule:nonzero;fill:rgb(0%,0%,0%);fill-opacity:1;" d="M 905.042969 486.480469 L 905.808594 485.890625 L 1035.839844 558.613281 L 1035.074219 559.203125 Z M 905.042969 486.480469 "/>
<path style=" stroke:none;fill-rule:nonzero;fill:rgb(0%,0%,0%);fill-opacity:1;" d="M 1050.355469 558.429688 L 1050.574219 557.667969 L 1063.507812 559.238281 L 1063.292969 560 Z M 1050.355469 558.429688 "/>
<path style=" stroke:none;fill-rule:nonzero;fill:rgb(0%,0%,0%);fill-opacity:1;" d="M 1088.734375 580.582031 L 1088.949219 579.820312 L 1096.300781 580.710938 L 1096.085938 581.472656 Z M 1088.734375 580.582031 "/>
<path style=" stroke:none;fill-rule:nonzero;fill:rgb(0%,0%,0%);fill-opacity:1;" d="M 1093.027344 583.804688 L 1093.246094 583.042969 L 1100.59375 583.933594 L 1100.378906 584.695312 Z M 1093.027344 583.804688 "/>
<path style=" stroke:none;fill-rule:nonzero;fill:rgb(0%,0%,0%);fill-opacity:1;" d="M 1053.808594 562.371094 L 1054.023438 561.609375 L 1066.960938 563.179688 L 1066.746094 563.941406 Z M 1053.808594 562.371094 "/>
<path style=" stroke:none;fill-rule:nonzero;fill:rgb(0%,0%,0%);fill-opacity:1;" d="M 1069.308594 577.78125 L 1091.773438 560.433594 L 1092.671875 560.933594 L 1070.210938 578.28125 Z M 1069.308594 577.78125 "/>
<path style=" stroke:none;fill-rule:nonzero;fill:rgb(98.823529%,56.862745%,40.784314%);fill-opacity:1;" d="M 938.289062 505.496094 C 938.15625 505.269531 938.015625 505.046875 937.878906 504.820312 C 937.699219 504.53125 937.523438 504.242188 937.339844 503.949219 C 936.734375 502.96875 936.121094 502 935.5 501.046875 C 935.367188 500.84375 935.234375 500.640625 935.09375 500.4375 C 934.960938 500.230469 934.824219 500.027344 934.683594 499.824219 C 931.890625 495.652344 928.984375 491.894531 926.09375 489.035156 C 925.871094 488.8125 925.644531 488.597656 925.421875 488.386719 C 924.886719 487.882812 924.351562 487.410156 923.820312 486.972656 C 917.585938 481.871094 912.539062 479.03125 908.792969 477.464844 L 907.625 477.117188 L 906.4375 476.601562 L 899.320312 475.550781 L 894.878906 480.203125 L 894.855469 480.191406 L 894.847656 480.183594 L 894.835938 480.179688 L 892.507812 479.007812 L 892.101562 478.804688 L 890.847656 478.175781 L 890.390625 478.292969 L 882.039062 480.476562 C 882.039062 480.476562 891.570312 506.207031 901.863281 532.269531 L 943.070312 513.921875 C 941.5625 511.117188 939.960938 508.269531 938.289062 505.496094 Z M 938.289062 505.496094 "/>
<path style=" stroke:none;fill-rule:nonzero;fill:rgb(99.607843%,62.352941%,45.098039%);fill-opacity:1;" d="M 903.269531 484.425781 L 903.492188 484.144531 L 892.789062 478.769531 L 892.507812 479.007812 Z M 903.269531 484.425781 "/>
<path style=" stroke:none;fill-rule:nonzero;fill:rgb(0%,0%,0%);fill-opacity:1;" d="M 891.105469 505.421875 C 901.433594 532.445312 917.425781 573.1875 923.886719 583.6875 L 924.871094 583.425781 C 918.425781 572.953125 902.433594 532.203125 892.113281 505.195312 Z M 891.105469 505.421875 "/>
<path style=" stroke:none;fill-rule:nonzero;fill:rgb(0%,0%,0%);fill-opacity:1;" d="M 942.253906 513.015625 L 943.265625 512.808594 L 955.296875 537.90625 L 954.285156 538.117188 Z M 942.253906 513.015625 "/>
<path style=" stroke:none;fill-rule:nonzero;fill:rgb(98.823529%,30.980392%,40.784314%);fill-opacity:1;" d="M 898.628906 495.621094 L 901.808594 495.039062 C 913.914062 490.757812 898.96875 467.660156 895.820312 463.070312 C 894.261719 460.792969 892.417969 460.222656 890.957031 460.222656 C 890.957031 460.222656 886.308594 459.644531 883.351562 461.859375 C 882.351562 462.492188 881.515625 463.636719 881.503906 465.691406 C 881.46875 470.863281 882.097656 496.582031 895.445312 496.203125 Z M 898.628906 495.621094 "/>
<path style=" stroke:none;fill-rule:nonzero;fill:rgb(0%,0%,0%);fill-opacity:1;" d="M 883.78125 462.125 L 883.824219 462.097656 C 886.480469 460.105469 890.730469 460.609375 890.773438 460.613281 L 891.136719 459.828125 C 890.929688 459.804688 886.089844 459.234375 882.898438 461.605469 C 881.5625 462.460938 880.878906 463.847656 880.867188 465.726562 C 880.832031 470.953125 881.375 497 895.414062 496.605469 L 895.492188 496.601562 L 898.75 496.003906 L 898.507812 495.238281 L 895.402344 495.808594 C 882.320312 496.070312 882.121094 468.773438 882.140625 465.652344 C 882.152344 463.996094 882.703125 462.808594 883.78125 462.125 Z M 883.78125 462.125 "/>
<path style=" stroke:none;fill-rule:nonzero;fill:rgb(97.647059%,50.588235%,47.058824%);fill-opacity:1;" d="M 272.257812 557.753906 C 301.671875 561.746094 222.828125 609.746094 222.828125 609.746094 C 222.828125 609.746094 184.351562 615.488281 184.867188 605.011719 C 185.386719 594.53125 202.242188 536.464844 205.25 535.640625 C 205.25 535.640625 242.839844 553.757812 272.257812 557.753906 Z M 272.257812 557.753906 "/>
<path style=" stroke:none;fill-rule:nonzero;fill:rgb(97.647059%,50.588235%,47.058824%);fill-opacity:1;" d="M 240.3125 629.796875 L 247.628906 620.265625 L 262.21875 635.507812 C 261.019531 635.332031 240.3125 629.796875 240.3125 629.796875 Z M 240.3125 629.796875 "/>
<path style=" stroke:none;fill-rule:nonzero;fill:rgb(28.627451%,14.901961%,24.313725%);fill-opacity:1;" d="M 292.722656 632.570312 C 293.433594 634.085938 287.417969 637.480469 285.785156 638.089844 C 284.152344 638.695312 268.527344 634.0625 268.527344 634.0625 L 279.519531 622.558594 C 279.519531 622.558594 292.011719 631.054688 292.722656 632.570312 Z M 292.722656 632.570312 "/>
<path style=" stroke:none;fill-rule:nonzero;fill:rgb(97.647059%,50.588235%,47.058824%);fill-opacity:1;" d="M 282.710938 632.363281 C 279.933594 639.453125 252.980469 635.949219 245.0625 629.289062 C 237.140625 622.628906 254.492188 606.6875 254.492188 606.6875 C 254.492188 606.6875 287.667969 619.714844 282.710938 632.363281 Z M 282.710938 632.363281 "/>
<path style=" stroke:none;fill-rule:nonzero;fill:rgb(0%,0%,0%);fill-opacity:1;" d="M 270.449219 614.949219 L 271.34375 614.417969 C 271.976562 614.878906 286.839844 625.742188 283.53125 631.957031 C 280.1875 638.242188 265.042969 636.679688 264.414062 636.636719 L 264.539062 635.851562 C 264.683594 635.859375 279.363281 637.390625 282.394531 631.695312 C 285.464844 625.925781 270.597656 615.058594 270.449219 614.949219 Z M 270.449219 614.949219 "/>
<path style=" stroke:none;fill-rule:nonzero;fill:rgb(0%,0%,0%);fill-opacity:1;" d="M 279.082031 622.832031 L 279.957031 622.285156 C 279.992188 622.308594 283.332031 624.613281 286.613281 626.988281 C 293.421875 631.914062 293.363281 632.332031 293.324219 632.605469 C 293.191406 633.558594 290.148438 637.144531 286.046875 638.445312 L 285.523438 637.730469 C 289.210938 636.5625 291.925781 633.3125 292.113281 632.574219 C 292.113281 632.570312 292.109375 632.566406 292.105469 632.5625 C 291.609375 631.726562 285.085938 626.96875 279.082031 622.832031 Z M 279.082031 622.832031 "/>
<path style=" stroke:none;fill-rule:nonzero;fill:rgb(97.647059%,50.588235%,47.058824%);fill-opacity:1;" d="M 227.710938 644.648438 L 232.410156 638.527344 L 241.777344 648.316406 C 241.007812 648.203125 227.710938 644.648438 227.710938 644.648438 Z M 227.710938 644.648438 "/>
<path style=" stroke:none;fill-rule:nonzero;fill:rgb(28.627451%,14.901961%,24.313725%);fill-opacity:1;" d="M 261.363281 646.429688 C 261.820312 647.402344 257.957031 649.582031 256.910156 649.972656 C 255.859375 650.359375 245.828125 647.386719 245.828125 647.386719 L 252.886719 640 C 252.886719 640 260.910156 645.453125 261.363281 646.429688 Z M 261.363281 646.429688 "/>
<path style=" stroke:none;fill-rule:nonzero;fill:rgb(97.647059%,50.588235%,47.058824%);fill-opacity:1;" d="M 254.9375 646.296875 C 253.152344 650.847656 235.847656 648.597656 230.761719 644.320312 C 225.675781 640.042969 236.816406 629.808594 236.816406 629.808594 C 236.816406 629.808594 258.121094 638.175781 254.9375 646.296875 Z M 254.9375 646.296875 "/>
<path style=" stroke:none;fill-rule:nonzero;fill:rgb(0%,0%,0%);fill-opacity:1;" d="M 247.0625 635.113281 L 247.636719 634.773438 C 248.042969 635.070312 257.585938 642.046875 255.464844 646.035156 C 253.316406 650.070312 243.59375 649.066406 243.1875 649.039062 L 243.269531 648.535156 C 243.359375 648.539062 252.785156 649.523438 254.730469 645.867188 C 256.703125 642.160156 247.160156 635.183594 247.0625 635.113281 Z M 247.0625 635.113281 "/>
<path style=" stroke:none;fill-rule:nonzero;fill:rgb(0%,0%,0%);fill-opacity:1;" d="M 252.605469 640.175781 L 253.167969 639.824219 C 253.191406 639.839844 255.335938 641.320312 257.441406 642.84375 C 261.8125 646.007812 261.777344 646.273438 261.75 646.453125 C 261.664062 647.0625 259.710938 649.367188 257.078125 650.199219 L 256.742188 649.742188 C 259.109375 648.992188 260.851562 646.90625 260.972656 646.429688 C 260.972656 646.425781 260.972656 646.425781 260.96875 646.421875 C 260.648438 645.886719 256.460938 642.832031 252.605469 640.175781 Z M 252.605469 640.175781 "/>
<path style=" stroke:none;fill-rule:nonzero;fill:rgb(97.647059%,50.588235%,47.058824%);fill-opacity:1;" d="M 259.722656 605.25 L 265.109375 595.183594 L 282.570312 609.066406 C 281.34375 608.992188 259.722656 605.25 259.722656 605.25 Z M 259.722656 605.25 "/>
<path style=" stroke:none;fill-rule:nonzero;fill:rgb(28.627451%,14.901961%,24.313725%);fill-opacity:1;" d="M 312.242188 603.578125 C 313.246094 605.019531 307.945312 608.894531 306.445312 609.636719 C 304.945312 610.375 288.542969 607.097656 288.542969 607.097656 L 297.183594 594.765625 C 297.183594 594.765625 311.238281 602.132812 312.242188 603.578125 Z M 312.242188 603.578125 "/>
<path style=" stroke:none;fill-rule:nonzero;fill:rgb(97.647059%,50.588235%,47.058824%);fill-opacity:1;" d="M 302.273438 604.21875 C 300.90625 611.480469 273.492188 610.28125 264.332031 604.34375 C 255.171875 598.410156 269.246094 581.136719 269.246094 581.136719 C 269.246094 581.136719 304.703125 591.257812 302.273438 604.21875 Z M 302.273438 604.21875 "/>
<path style=" stroke:none;fill-rule:nonzero;fill:rgb(0%,0%,0%);fill-opacity:1;" d="M 286.691406 587.984375 L 287.472656 587.382812 C 288.195312 587.785156 305.066406 597.304688 303.007812 603.742188 C 300.925781 610.257812 285.601562 609.988281 284.964844 610 L 284.9375 609.207031 C 285.082031 609.207031 299.9375 609.484375 301.824219 603.582031 C 303.738281 597.597656 286.863281 588.078125 286.691406 587.984375 Z M 286.691406 587.984375 "/>
<path style=" stroke:none;fill-rule:nonzero;fill:rgb(0%,0%,0%);fill-opacity:1;" d="M 311.628906 603.621094 C 310.96875 602.835938 303.566406 598.667969 296.800781 595.070312 L 297.5625 594.457031 C 297.601562 594.476562 301.363281 596.480469 305.085938 598.558594 C 312.804688 602.867188 312.828125 603.285156 312.84375 603.5625 C 312.898438 604.515625 310.585938 608.332031 306.773438 609.964844 L 306.113281 609.304688 C 309.542969 607.835938 311.59375 604.382812 311.640625 603.632812 C 311.636719 603.628906 311.632812 603.625 311.628906 603.621094 Z M 311.628906 603.621094 "/>
<path style=" stroke:none;fill-rule:nonzero;fill:rgb(0%,0%,0%);fill-opacity:1;" d="M 162.316406 544.691406 L 191.066406 513.203125 L 191.976562 513.558594 L 163.230469 545.046875 Z M 162.316406 544.691406 "/>
<path style=" stroke:none;fill-rule:nonzero;fill:rgb(100%,69.803922%,58.039216%);fill-opacity:1;" d="M 84.347656 652.867188 L 38.28125 719.957031 L 183.78125 719.957031 L 213.265625 662.703125 L 90.402344 641.878906 Z M 84.347656 652.867188 "/>
<path style=" stroke:none;fill-rule:nonzero;fill:rgb(99.607843%,62.352941%,45.098039%);fill-opacity:1;" d="M 241.980469 516.671875 L 241.738281 516.621094 C 242.292969 515.136719 244.988281 507.914062 241.980469 516.671875 Z M 241.980469 516.671875 "/>
<path style=" stroke:none;fill-rule:nonzero;fill:rgb(99.607843%,62.352941%,45.098039%);fill-opacity:1;" d="M 289.945312 545.835938 L 289.828125 545.53125 L 302.148438 541.941406 L 302.339844 542.214844 Z M 289.945312 545.835938 "/>
<path style=" stroke:none;fill-rule:nonzero;fill:rgb(100%,69.803922%,58.039216%);fill-opacity:1;" d="M 101.964844 609.109375 C 101.964844 609.109375 101.964844 609.105469 101.964844 609.109375 C 99.84375 615.136719 97.714844 621.433594 95.65625 627.324219 C 84.804688 658.332031 75.503906 685.269531 75.503906 685.269531 L 173.90625 714.773438 C 173.90625 714.773438 218.898438 653.226562 234.328125 639.03125 C 249.75 624.835938 311.992188 545.246094 311.992188 545.246094 L 304.648438 541.847656 L 304.246094 541.660156 L 302.804688 542.082031 L 302.339844 542.214844 L 299.65625 543 L 299.632812 543.007812 L 299.605469 543.015625 L 295.820312 537.441406 L 289.648438 537.746094 L 288.308594 538.066406 L 287.054688 538.222656 C 282.851562 539.175781 276.933594 541.164062 269.058594 545.171875 C 268.382812 545.511719 267.695312 545.890625 266.992188 546.300781 C 266.703125 546.46875 266.40625 546.644531 266.109375 546.828125 C 262.28125 549.164062 258.117188 552.375 253.914062 556.003906 C 253.710938 556.179688 253.503906 556.359375 253.300781 556.539062 C 253.09375 556.714844 252.890625 556.894531 252.6875 557.070312 C 251.746094 557.902344 250.804688 558.746094 249.867188 559.609375 L 249.863281 559.609375 C 249.582031 559.867188 249.308594 560.121094 249.03125 560.375 C 248.816406 560.574219 248.601562 560.769531 248.394531 560.96875 C 234.125 574.300781 220.96875 590.121094 220.96875 590.121094 C 218.210938 587.257812 215.273438 579.730469 220.046875 569.898438 L 150.316406 592.988281 Z M 101.964844 609.109375 "/>
<path style=" stroke:none;fill-rule:nonzero;fill:rgb(99.607843%,62.352941%,45.098039%);fill-opacity:1;" d="M 105.09375 600.457031 C 105.09375 600.457031 105.09375 600.460938 105.09375 600.464844 L 105.097656 600.460938 Z M 105.09375 600.457031 "/>
<path style=" stroke:none;fill-rule:nonzero;fill:rgb(100%,69.803922%,58.039216%);fill-opacity:1;" d="M 112.378906 579.933594 L 113.003906 579.722656 L 228.660156 541.199219 C 228.796875 540.820312 241.378906 517.777344 241.628906 516.941406 L 241.628906 516.9375 C 241.640625 516.894531 241.648438 516.871094 241.648438 516.871094 C 241.648438 516.871094 241.769531 516.890625 241.992188 516.921875 C 243.375 517.121094 248.769531 517.894531 256.246094 518.898438 C 256.367188 518.914062 256.484375 518.933594 256.605469 518.949219 C 256.839844 518.980469 257.078125 519.011719 257.320312 519.046875 C 264.074219 519.953125 272.375 521.03125 280.90625 522.054688 C 282.1875 522.207031 283.476562 522.359375 284.761719 522.507812 L 285.546875 522.25 L 320.074219 510.746094 L 320.722656 510.53125 C 289.511719 503.074219 230.332031 489.027344 226.355469 488.800781 C 220.929688 488.496094 195.558594 508.644531 184.664062 519.882812 C 173.773438 531.125 134.464844 524.488281 128.542969 536.625 C 126.589844 540.636719 120.136719 558.199219 112.378906 579.933594 Z M 112.378906 579.933594 "/>
<path style=" stroke:none;fill-rule:nonzero;fill:rgb(0%,0%,0%);fill-opacity:1;" d="M 340.214844 514.832031 L 339.921875 514.761719 L 340.210938 515.136719 C 340.210938 515.105469 340.210938 515.085938 340.210938 515.074219 Z M 340.214844 514.832031 "/>
<path style=" stroke:none;fill-rule:nonzero;fill:rgb(0%,0%,0%);fill-opacity:1;" d="M 241.230469 516.457031 L 241.121094 516.808594 C 241.113281 516.828125 241.289062 516.875 241.625 516.941406 C 244.984375 517.617188 264.59375 520.421875 284.085938 522.734375 L 284.761719 522.507812 L 285.546875 522.25 C 263.855469 519.726562 242.082031 516.582031 241.761719 516.535156 Z M 241.230469 516.457031 "/>
<path style=" stroke:none;fill-rule:nonzero;fill:rgb(0%,0%,0%);fill-opacity:1;" d="M 111.765625 580.136719 C 111.707031 580.300781 111.652344 580.464844 111.585938 580.628906 C 111.53125 580.792969 111.472656 580.960938 111.410156 581.125 C 110.433594 583.878906 109.433594 586.691406 108.421875 589.542969 C 108.289062 589.914062 108.160156 590.289062 108.023438 590.660156 C 107.070312 593.347656 106.109375 596.0625 105.144531 598.796875 C 105.078125 598.980469 105.015625 599.160156 104.949219 599.347656 C 104.878906 599.554688 104.800781 599.765625 104.726562 599.976562 C 104.644531 600.207031 104.5625 600.4375 104.484375 600.667969 C 103.4375 603.628906 102.390625 606.601562 101.347656 609.566406 L 101.347656 609.570312 C 99.238281 615.550781 97.152344 621.496094 95.140625 627.246094 L 95.65625 627.324219 L 96.175781 627.398438 C 98.25 621.46875 100.40625 615.328125 102.574219 609.160156 C 103.539062 606.421875 104.507812 603.679688 105.472656 600.949219 C 105.546875 600.734375 105.621094 600.527344 105.695312 600.3125 L 105.71875 600.253906 C 105.773438 600.089844 105.832031 599.929688 105.890625 599.765625 C 106.855469 597.03125 107.816406 594.3125 108.769531 591.625 C 109.066406 590.789062 109.359375 589.960938 109.652344 589.132812 C 110.667969 586.277344 111.664062 583.464844 112.648438 580.714844 C 112.707031 580.546875 112.765625 580.378906 112.824219 580.214844 L 113.003906 579.726562 C 120.652344 558.289062 127.097656 540.726562 129.046875 536.734375 C 132.007812 530.671875 143.660156 529.441406 156.003906 528.140625 C 167.664062 526.914062 179.714844 525.640625 185.113281 520.074219 C 190.496094 514.519531 199.464844 506.734375 207.964844 500.242188 C 218.863281 491.914062 224.589844 489.050781 226.308594 489.152344 C 230.1875 489.367188 288.75 503.261719 320.074219 510.746094 L 320.722656 510.53125 L 321.375 510.316406 C 290.207031 502.867188 230.488281 488.6875 226.402344 488.457031 C 220.339844 488.113281 194.390625 509.203125 184.21875 519.703125 C 179.078125 525 167.261719 526.25 155.832031 527.453125 C 143.164062 528.789062 131.191406 530.050781 128.035156 536.523438 C 126.058594 540.566406 119.511719 558.429688 111.765625 580.136719 Z M 111.765625 580.136719 "/>
<path style=" stroke:none;fill-rule:nonzero;fill:rgb(0%,0%,0%);fill-opacity:1;" d="M 225.425781 593.488281 L 224.636719 593.953125 C 224.238281 593.667969 214.921875 586.828125 216.921875 579.152344 L 217.96875 579.269531 C 216.054688 586.605469 225.332031 593.417969 225.425781 593.488281 Z M 225.425781 593.488281 "/>
<path style=" stroke:none;fill-rule:nonzero;fill:rgb(81.176471%,20.784314%,24.313725%);fill-opacity:1;" d="M 75.015625 618.074219 L 59.292969 597.789062 L 324.066406 509.582031 L 339.792969 529.871094 Z M 75.015625 618.074219 "/>
<path style=" stroke:none;fill-rule:nonzero;fill:rgb(100%,25.882353%,30.196078%);fill-opacity:1;" d="M 70.179688 611.832031 L 64.128906 604.03125 L 328.90625 515.824219 L 334.953125 523.628906 Z M 70.179688 611.832031 "/>
<path style=" stroke:none;fill-rule:nonzero;fill:rgb(100%,100%,100%);fill-opacity:1;" d="M 94.925781 611.441406 L 79.199219 591.152344 L 86.992188 588.554688 L 102.71875 608.84375 Z M 94.925781 611.441406 "/>
<path style=" stroke:none;fill-rule:nonzero;fill:rgb(100%,80.392157%,43.921569%);fill-opacity:1;" d="M 53 612.65625 C 57.34375 618.261719 67.789062 620.492188 76.335938 617.648438 L 94.941406 611.449219 L 79.21875 591.160156 L 60.613281 597.359375 C 52.066406 600.207031 48.660156 607.054688 53 612.65625 Z M 53 612.65625 "/>
<path style=" stroke:none;fill-rule:nonzero;fill:rgb(96.862745%,83.921569%,69.803922%);fill-opacity:1;" d="M 371.117188 506.691406 L 339.816406 529.878906 C 337.234375 530.742188 334.054688 530.039062 332.71875 528.316406 C 331.382812 526.59375 332.394531 524.496094 334.976562 523.636719 C 332.394531 524.496094 328.945312 523.449219 327.277344 521.292969 C 325.605469 519.140625 326.347656 516.695312 328.929688 515.835938 C 326.347656 516.695312 323.171875 515.996094 321.835938 514.269531 C 320.5 512.546875 321.507812 510.453125 324.089844 509.59375 Z M 371.117188 506.691406 "/>
<path style=" stroke:none;fill-rule:nonzero;fill:rgb(81.176471%,20.784314%,24.313725%);fill-opacity:1;" d="M 339.816406 529.878906 C 339.816406 529.878906 333.042969 527.71875 334.976562 523.636719 L 329.457031 525.476562 L 334.296875 531.71875 Z M 339.816406 529.878906 "/>
<path style=" stroke:none;fill-rule:nonzero;fill:rgb(81.176471%,20.784314%,24.313725%);fill-opacity:1;" d="M 328.929688 515.835938 C 328.929688 515.835938 322.15625 513.671875 324.089844 509.589844 L 318.570312 511.429688 L 323.410156 517.671875 Z M 328.929688 515.835938 "/>
<path style=" stroke:none;fill-rule:nonzero;fill:rgb(100%,25.882353%,30.196078%);fill-opacity:1;" d="M 334.976562 523.636719 C 334.976562 523.636719 327.164062 521.984375 328.929688 515.835938 L 323.410156 517.671875 L 329.457031 525.476562 Z M 334.976562 523.636719 "/>
<path style=" stroke:none;fill-rule:nonzero;fill:rgb(100%,25.882353%,30.196078%);fill-opacity:1;" d="M 360.722656 514.390625 C 360.722656 514.390625 354.648438 512.535156 355.5 507.652344 L 371.117188 506.6875 Z M 360.722656 514.390625 "/>
<path style=" stroke:none;fill-rule:nonzero;fill:rgb(0%,0%,0%);fill-opacity:1;" d="M 52.472656 612.832031 C 48.34375 607.445312 50.714844 603.421875 53.429688 600.996094 C 56.347656 598.390625 60.179688 597.070312 60.339844 597.015625 L 323.925781 509.210938 L 324.035156 509.207031 L 372.550781 506.210938 L 352.390625 521.148438 L 351.507812 520.632812 L 369.683594 507.167969 L 324.257812 509.96875 L 60.878906 597.703125 C 60.847656 597.714844 57.109375 599.007812 54.359375 601.476562 C 50.714844 604.746094 50.4375 608.449219 53.527344 612.484375 Z M 52.472656 612.832031 "/>
<path style=" stroke:none;fill-rule:nonzero;fill:rgb(0%,0%,0%);fill-opacity:1;" d="M 134.796875 597.707031 L 287.117188 546.894531 L 287.652344 547.582031 L 135.332031 598.398438 Z M 134.796875 597.707031 "/>
<path style=" stroke:none;fill-rule:nonzero;fill:rgb(0%,0%,0%);fill-opacity:1;" d="M 107.597656 594.929688 L 107.660156 594.15625 L 120.796875 594.605469 L 120.734375 595.378906 Z M 107.597656 594.929688 "/>
<path style=" stroke:none;fill-rule:nonzero;fill:rgb(0%,0%,0%);fill-opacity:1;" d="M 68.117188 610.738281 L 68.175781 609.964844 L 75.640625 610.21875 L 75.578125 610.996094 Z M 68.117188 610.738281 "/>
<path style=" stroke:none;fill-rule:nonzero;fill:rgb(0%,0%,0%);fill-opacity:1;" d="M 62.785156 613.234375 L 62.847656 612.460938 L 70.3125 612.71875 L 70.25 613.492188 Z M 62.785156 613.234375 "/>
<path style=" stroke:none;fill-rule:nonzero;fill:rgb(0%,0%,0%);fill-opacity:1;" d="M 102.800781 598.199219 L 102.863281 597.425781 L 116.003906 597.875 L 115.941406 598.652344 Z M 102.800781 598.199219 "/>
<path style=" stroke:none;fill-rule:nonzero;fill:rgb(0%,0%,0%);fill-opacity:1;" d="M 78.710938 591.3125 L 79.765625 590.964844 L 95.4375 611.269531 L 94.382812 611.621094 Z M 78.710938 591.3125 "/>
<path style=" stroke:none;fill-rule:nonzero;fill:rgb(100%,69.803922%,58.039216%);fill-opacity:1;" d="M 248.585938 561 C 248.796875 560.800781 249.011719 560.605469 249.226562 560.40625 C 249.503906 560.148438 249.777344 559.898438 250.058594 559.640625 L 250.058594 559.636719 C 251 558.777344 251.9375 557.929688 252.882812 557.101562 C 253.082031 556.925781 253.285156 556.746094 253.492188 556.570312 C 253.695312 556.386719 253.902344 556.210938 254.109375 556.035156 C 258.308594 552.40625 262.476562 549.195312 266.304688 546.859375 C 266.597656 546.675781 266.898438 546.5 267.1875 546.332031 C 267.890625 545.921875 268.578125 545.542969 269.25 545.199219 C 277.128906 541.191406 283.046875 539.207031 287.246094 538.253906 L 288.503906 538.09375 L 289.84375 537.777344 L 297.136719 537.84375 L 299.796875 543.046875 L 299.828125 543.039062 L 299.839844 543.03125 L 299.851562 543.027344 L 302.53125 542.246094 L 302.996094 542.113281 L 304.441406 541.691406 L 304.84375 541.878906 L 312.1875 545.277344 C 312.1875 545.277344 293.761719 568.835938 274.476562 592.605469 L 240.9375 568.460938 C 243.402344 565.964844 245.976562 563.441406 248.585938 561 Z M 248.585938 561 "/>
<path style=" stroke:none;fill-rule:nonzero;fill:rgb(99.607843%,62.352941%,45.098039%);fill-opacity:1;" d="M 290.140625 545.867188 L 290.023438 545.5625 L 302.34375 541.972656 L 302.53125 542.246094 Z M 290.140625 545.867188 "/>
<path style=" stroke:none;fill-rule:nonzero;fill:rgb(0%,0%,0%);fill-opacity:1;" d="M 294.492188 568.144531 C 274.832031 592.84375 244.777344 630.015625 234.757812 639.234375 L 233.894531 638.832031 C 243.886719 629.632812 273.945312 592.457031 293.59375 567.773438 Z M 294.492188 568.144531 "/>
<path style=" stroke:none;fill-rule:nonzero;fill:rgb(0%,0%,0%);fill-opacity:1;" d="M 220.5 589.925781 L 241.132812 567.359375 L 242.042969 567.714844 L 221.410156 590.28125 Z M 220.5 589.925781 "/>
<path style=" stroke:none;fill-rule:nonzero;fill:rgb(28.627451%,14.901961%,24.313725%);fill-opacity:1;" d="M 290.667969 557.464844 L 287.78125 556.414062 C 277.535156 550.398438 300.289062 530.222656 304.984375 526.242188 C 307.308594 524.269531 309.304688 523.992188 310.730469 524.214844 C 310.730469 524.214844 315.453125 524.363281 317.539062 526.972656 C 318.289062 527.742188 318.691406 528.980469 317.972656 530.980469 C 316.164062 536.015625 306.402344 560.929688 293.554688 558.519531 Z M 290.667969 557.464844 "/>
<path style=" stroke:none;fill-rule:nonzero;fill:rgb(0%,0%,0%);fill-opacity:1;" d="M 317.027344 527.164062 L 316.996094 527.132812 C 315.121094 524.789062 310.808594 524.628906 310.765625 524.625 L 310.691406 523.808594 C 310.902344 523.8125 315.8125 524 318.070312 526.792969 C 319.066406 527.832031 319.238281 529.285156 318.582031 531.113281 C 316.753906 536.199219 306.953125 561.445312 293.441406 558.914062 L 293.367188 558.898438 L 290.410156 557.820312 L 290.921875 557.113281 L 293.738281 558.140625 C 306.363281 560.394531 316.277344 533.882812 317.367188 530.847656 C 317.945312 529.234375 317.832031 527.996094 317.027344 527.164062 Z M 317.027344 527.164062 "/>
</g>
</svg>
