<?xml version="1.0" encoding="UTF-8"?>
<svg xmlns="http://www.w3.org/2000/svg" xmlns:xlink="http://www.w3.org/1999/xlink" width="1280px" height="720px" viewBox="0 0 1280 720" version="1.1">
<defs>
<filter id="alpha" filterUnits="objectBoundingBox" x="0%" y="0%" width="100%" height="100%">
  <feColorMatrix type="matrix" in="SourceGraphic" values="0 0 0 0 1 0 0 0 0 1 0 0 0 0 1 0 0 0 1 0"/>
</filter>
<mask id="mask0">
  <g filter="url(#alpha)">
<rect x="0" y="0" width="1280" height="720" style="fill:rgb(0%,0%,0%);fill-opacity:0.101961;stroke:none;"/>
  </g>
</mask>
<clipPath id="clip1">
  <rect x="0" y="0" width="1280" height="720"/>
</clipPath>
<g id="surface5" clip-path="url(#clip1)">
<path style=" stroke:none;fill-rule:nonzero;fill:rgb(0%,0%,0%);fill-opacity:1;" d="M 869.855469 636.59375 L 1058.574219 604.46875 L 1127.8125 336.738281 L 1052.332031 235.75 L 1081.222656 152.046875 L 1108.820312 152.046875 L 1082.414062 234.121094 L 1165.890625 336.742188 L 1096.089844 636.59375 Z M 869.855469 636.59375 "/>
</g>
<mask id="mask1">
  <g filter="url(#alpha)">
<rect x="0" y="0" width="1280" height="720" style="fill:rgb(0%,0%,0%);fill-opacity:0.101961;stroke:none;"/>
  </g>
</mask>
<clipPath id="clip2">
  <rect x="0" y="0" width="1280" height="720"/>
</clipPath>
<g id="surface8" clip-path="url(#clip2)">
<path style=" stroke:none;fill-rule:nonzero;fill:rgb(0%,0%,0%);fill-opacity:1;" d="M 101.625 225.710938 C 161.261719 293.863281 223.445312 372.945312 238.585938 458.40625 C 238.769531 459.703125 236.3125 460.125 235.957031 458.839844 C 229.035156 435.402344 220.277344 412.636719 209.582031 390.414062 C 170.375 381.3125 131.894531 373.832031 111.304688 340.996094 C 90.304688 307.246094 92.972656 263.234375 96.964844 226.46875 C 97.246094 224.5 100.410156 224.402344 101.625 225.710938 Z M 101.625 225.710938 "/>
</g>
<mask id="mask2">
  <g filter="url(#alpha)">
<rect x="0" y="0" width="1280" height="720" style="fill:rgb(0%,0%,0%);fill-opacity:0.101961;stroke:none;"/>
  </g>
</mask>
<clipPath id="clip3">
  <rect x="0" y="0" width="1280" height="720"/>
</clipPath>
<g id="surface11" clip-path="url(#clip3)">
<path style=" stroke:none;fill-rule:nonzero;fill:rgb(0%,0%,0%);fill-opacity:1;" d="M 245.484375 445.707031 C 245.363281 446.742188 243.277344 446.722656 243.304688 445.621094 C 242.996094 417.476562 243.273438 389.203125 242.773438 360.933594 C 234.230469 346.382812 215.886719 338.328125 203.132812 326.667969 C 193.9375 318.253906 186.074219 308.761719 179.347656 298.722656 C 163.574219 274.910156 155.035156 248.140625 151.75 221.085938 C 148.226562 190.980469 161.765625 91.644531 176.808594 95.097656 C 184.605469 96.882812 209.847656 146.085938 216.539062 162.351562 C 227.503906 189.109375 235.21875 216.839844 240.28125 244.820312 C 252.46875 311.054688 251.453125 379.058594 245.484375 445.707031 Z M 245.484375 445.707031 "/>
</g>
<mask id="mask3">
  <g filter="url(#alpha)">
<rect x="0" y="0" width="1280" height="720" style="fill:rgb(0%,0%,0%);fill-opacity:0.101961;stroke:none;"/>
  </g>
</mask>
<clipPath id="clip4">
  <rect x="0" y="0" width="1280" height="720"/>
</clipPath>
<g id="surface14" clip-path="url(#clip4)">
<path style=" stroke:none;fill-rule:nonzero;fill:rgb(0%,0%,0%);fill-opacity:1;" d="M 268.0625 364.316406 C 268.628906 382.964844 271.015625 401.613281 275.855469 419.761719 C 275.511719 421.765625 275.167969 423.765625 274.820312 425.832031 C 267.855469 405.632812 264.214844 384.929688 263.066406 364.027344 C 262.6875 363.449219 262.53125 362.824219 262.964844 362.117188 C 262.964844 362.117188 262.964844 362.117188 262.96875 362.054688 C 261.707031 334.148438 264.777344 305.929688 270.332031 278.316406 C 280.65625 226.59375 303.226562 176.957031 345.980469 138.191406 C 347.332031 136.996094 350.039062 137.617188 350.703125 139.011719 C 367.949219 176.023438 361.933594 220.1875 347.238281 257.109375 C 339.242188 277 327.828125 296.097656 313.335938 313.199219 C 298.671875 330.597656 279.976562 345.316406 268.0625 364.316406 Z M 268.0625 364.316406 "/>
</g>
<mask id="mask4">
  <g filter="url(#alpha)">
<rect x="0" y="0" width="1280" height="720" style="fill:rgb(0%,0%,0%);fill-opacity:0.101961;stroke:none;"/>
  </g>
</mask>
<clipPath id="clip5">
  <rect x="0" y="0" width="1280" height="720"/>
</clipPath>
<g id="surface17" clip-path="url(#clip5)">
<path style=" stroke:none;fill-rule:nonzero;fill:rgb(0%,0%,0%);fill-opacity:1;" d="M 404.402344 262.167969 C 401.148438 290.714844 383.347656 324.8125 361.648438 346.804688 C 352.027344 356.53125 340.363281 363.972656 326.976562 369.632812 C 311.960938 375.902344 296.238281 383.121094 280.703125 388.265625 C 273.441406 403.910156 267.886719 420.292969 264.320312 437.367188 C 263.820312 435.941406 263.320312 434.449219 262.820312 433.019531 C 272.792969 360.75 328.214844 298.980469 399.113281 259.328125 C 401.664062 257.894531 404.683594 259.730469 404.402344 262.167969 Z M 404.402344 262.167969 "/>
</g>
<mask id="mask5">
  <g filter="url(#alpha)">
<rect x="0" y="0" width="1280" height="720" style="fill:rgb(0%,0%,0%);fill-opacity:0.2;stroke:none;"/>
  </g>
</mask>
<clipPath id="clip6">
  <rect x="0" y="0" width="1280" height="720"/>
</clipPath>
<g id="surface20" clip-path="url(#clip6)">
<path style=" stroke:none;fill-rule:nonzero;fill:rgb(0%,0%,0%);fill-opacity:1;" d="M 147.09375 451.164062 L 149.191406 471.144531 L 343.90625 461.15625 L 344.953125 451.164062 Z M 147.09375 451.164062 "/>
</g>
<mask id="mask6">
  <g filter="url(#alpha)">
<rect x="0" y="0" width="1280" height="720" style="fill:rgb(0%,0%,0%);fill-opacity:0.101961;stroke:none;"/>
  </g>
</mask>
<clipPath id="clip7">
  <rect x="0" y="0" width="1280" height="720"/>
</clipPath>
<g id="surface23" clip-path="url(#clip7)">
<path style=" stroke:none;fill-rule:nonzero;fill:rgb(100%,100%,100%);fill-opacity:1;" d="M 602.4375 307.023438 L 285.441406 574.488281 L 206.402344 574.488281 L 206.402344 526.089844 L 466.039062 307.023438 Z M 602.4375 307.023438 "/>
<path style=" stroke:none;fill-rule:nonzero;fill:rgb(100%,100%,100%);fill-opacity:1;" d="M 1073.597656 398.042969 L 1073.597656 513.128906 L 1000.875 574.488281 L 864.476562 574.488281 Z M 1073.597656 398.042969 "/>
<path style=" stroke:none;fill-rule:nonzero;fill:rgb(100%,100%,100%);fill-opacity:1;" d="M 742.074219 307.023438 L 425.078125 574.488281 L 397.738281 574.488281 L 714.734375 307.023438 Z M 742.074219 307.023438 "/>
<path style=" stroke:none;fill-rule:nonzero;fill:rgb(100%,100%,100%);fill-opacity:1;" d="M 288.289062 307.023438 L 206.402344 376.113281 L 206.402344 353.058594 L 260.964844 307.023438 Z M 288.289062 307.023438 "/>
</g>
<mask id="mask7">
  <g filter="url(#alpha)">
<rect x="0" y="0" width="1280" height="720" style="fill:rgb(0%,0%,0%);fill-opacity:0.2;stroke:none;"/>
  </g>
</mask>
<clipPath id="clip8">
  <rect x="0" y="0" width="1280" height="720"/>
</clipPath>
<g id="surface26" clip-path="url(#clip8)">
<path style=" stroke:none;fill-rule:nonzero;fill:rgb(0%,0%,0%);fill-opacity:1;" d="M 526.886719 608.113281 L 577.554688 608.113281 L 577.554688 611.492188 L 526.886719 611.492188 Z M 526.886719 608.113281 "/>
</g>
<mask id="mask8">
  <g filter="url(#alpha)">
<rect x="0" y="0" width="1280" height="720" style="fill:rgb(0%,0%,0%);fill-opacity:0.2;stroke:none;"/>
  </g>
</mask>
<clipPath id="clip9">
  <rect x="0" y="0" width="1280" height="720"/>
</clipPath>
<g id="surface29" clip-path="url(#clip9)">
<path style=" stroke:none;fill-rule:nonzero;fill:rgb(0%,0%,0%);fill-opacity:1;" d="M 614.667969 608.113281 L 665.332031 608.113281 L 665.332031 611.492188 L 614.667969 611.492188 Z M 614.667969 608.113281 "/>
</g>
<mask id="mask9">
  <g filter="url(#alpha)">
<rect x="0" y="0" width="1280" height="720" style="fill:rgb(0%,0%,0%);fill-opacity:0.2;stroke:none;"/>
  </g>
</mask>
<clipPath id="clip10">
  <rect x="0" y="0" width="1280" height="720"/>
</clipPath>
<g id="surface32" clip-path="url(#clip10)">
<path style=" stroke:none;fill-rule:nonzero;fill:rgb(0%,0%,0%);fill-opacity:1;" d="M 702.445312 608.113281 L 753.113281 608.113281 L 753.113281 611.492188 L 702.445312 611.492188 Z M 702.445312 608.113281 "/>
</g>
<mask id="mask10">
  <g filter="url(#alpha)">
<rect x="0" y="0" width="1280" height="720" style="fill:rgb(0%,0%,0%);fill-opacity:0.2;stroke:none;"/>
  </g>
</mask>
<clipPath id="clip11">
  <rect x="0" y="0" width="1280" height="720"/>
</clipPath>
<g id="surface35" clip-path="url(#clip11)">
<path style=" stroke:none;fill-rule:nonzero;fill:rgb(0%,0%,0%);fill-opacity:1;" d="M 440.0625 626.234375 L 320.085938 629.105469 L 320.085938 621.625 L 440.0625 621.625 Z M 440.0625 626.234375 "/>
</g>
<mask id="mask11">
  <g filter="url(#alpha)">
<rect x="0" y="0" width="1280" height="720" style="fill:rgb(0%,0%,0%);fill-opacity:0.2;stroke:none;"/>
  </g>
</mask>
<clipPath id="clip12">
  <rect x="0" y="0" width="1280" height="720"/>
</clipPath>
<g id="surface38" clip-path="url(#clip12)">
<path style=" stroke:none;fill-rule:nonzero;fill:rgb(0%,0%,0%);fill-opacity:1;" d="M 959.914062 626.234375 L 839.9375 629.105469 L 839.9375 621.625 L 959.914062 621.625 Z M 959.914062 626.234375 "/>
</g>
</defs>
<g id="surface1">
<path style=" stroke:none;fill-rule:nonzero;fill:rgb(92.156863%,92.156863%,92.156863%);fill-opacity:1;" d="M 1040.414062 173.074219 C 873.019531 176.003906 703.742188 176.027344 536.351562 173.074219 C 703.742188 170.117188 873.019531 170.144531 1040.414062 173.074219 Z M 1040.414062 173.074219 "/>
<path style=" stroke:none;fill-rule:nonzero;fill:rgb(92.156863%,92.156863%,92.156863%);fill-opacity:1;" d="M 1161.277344 115.445312 C 988.800781 118.375 814.390625 118.398438 641.917969 115.445312 C 814.390625 112.488281 988.804688 112.511719 1161.277344 115.445312 Z M 1161.277344 115.445312 "/>
<path style=" stroke:none;fill-rule:nonzero;fill:rgb(92.156863%,92.156863%,92.156863%);fill-opacity:1;" d="M 556.550781 230.308594 C 449.230469 233.257812 340.484375 233.28125 233.167969 230.308594 C 340.484375 227.335938 449.230469 227.359375 556.550781 230.308594 Z M 556.550781 230.308594 "/>
<path style=" stroke:none;fill-rule:nonzero;fill:rgb(92.156863%,92.156863%,92.156863%);fill-opacity:1;" d="M 442.105469 173.074219 C 334.785156 176.023438 226.042969 176.046875 118.722656 173.074219 C 226.042969 170.101562 334.785156 170.125 442.105469 173.074219 Z M 442.105469 173.074219 "/>
<path style=" stroke:none;fill-rule:nonzero;fill:rgb(92.156863%,92.156863%,92.156863%);fill-opacity:1;" d="M 910.117188 173.074219 C 906.601562 154.003906 906.574219 134.511719 910.117188 115.445312 C 913.664062 134.511719 913.636719 154.003906 910.117188 173.074219 Z M 910.117188 173.074219 "/>
<path style=" stroke:none;fill-rule:nonzero;fill:rgb(92.156863%,92.156863%,92.156863%);fill-opacity:1;" d="M 655.773438 173.074219 C 652.257812 154.003906 652.230469 134.511719 655.773438 115.445312 C 659.320312 134.511719 659.289062 154.003906 655.773438 173.074219 Z M 655.773438 173.074219 "/>
<path style=" stroke:none;fill-rule:nonzero;fill:rgb(92.156863%,92.156863%,92.156863%);fill-opacity:1;" d="M 401.433594 173.074219 C 397.917969 154.003906 397.886719 134.511719 401.433594 115.445312 C 404.976562 134.511719 404.949219 154.003906 401.433594 173.074219 Z M 401.433594 173.074219 "/>
<path style=" stroke:none;fill-rule:nonzero;fill:rgb(92.156863%,92.156863%,92.156863%);fill-opacity:1;" d="M 147.085938 173.074219 C 143.570312 154.003906 143.542969 134.511719 147.085938 115.445312 C 150.632812 134.511719 150.605469 154.003906 147.085938 173.074219 Z M 147.085938 173.074219 "/>
<path style=" stroke:none;fill-rule:nonzero;fill:rgb(92.156863%,92.156863%,92.156863%);fill-opacity:1;" d="M 1037.347656 115.6875 C 1033.832031 96.617188 1033.800781 77.125 1037.347656 58.054688 C 1040.890625 77.125 1040.863281 96.617188 1037.347656 115.6875 Z M 1037.347656 115.6875 "/>
<path style=" stroke:none;fill-rule:nonzero;fill:rgb(92.156863%,92.156863%,92.156863%);fill-opacity:1;" d="M 782.589844 115.6875 C 779.074219 96.617188 779.042969 77.125 782.589844 58.054688 C 786.132812 77.125 786.105469 96.617188 782.589844 115.6875 Z M 782.589844 115.6875 "/>
<path style=" stroke:none;fill-rule:nonzero;fill:rgb(92.156863%,92.156863%,92.156863%);fill-opacity:1;" d="M 273.074219 231.910156 C 269.558594 212.84375 269.53125 193.347656 273.074219 174.28125 C 276.617188 193.347656 276.589844 212.84375 273.074219 231.910156 Z M 273.074219 231.910156 "/>
<path style=" stroke:none;fill-rule:nonzero;fill:rgb(92.156863%,92.156863%,92.156863%);fill-opacity:1;" d="M 1018.960938 578.960938 C 846.484375 581.894531 672.074219 581.917969 499.601562 578.960938 C 672.074219 576.007812 846.484375 576.03125 1018.960938 578.960938 Z M 1018.960938 578.960938 "/>
<path style=" stroke:none;fill-rule:nonzero;fill:rgb(92.156863%,92.156863%,92.156863%);fill-opacity:1;" d="M 839.15625 521.332031 C 723.316406 524.28125 605.953125 524.304688 490.117188 521.332031 C 605.953125 518.359375 723.316406 518.382812 839.15625 521.332031 Z M 839.15625 521.332031 "/>
<path style=" stroke:none;fill-rule:nonzero;fill:rgb(92.156863%,92.156863%,92.156863%);fill-opacity:1;" d="M 655.472656 636.59375 C 651.957031 617.523438 651.929688 598.027344 655.472656 578.960938 C 659.015625 598.027344 658.988281 617.523438 655.472656 636.59375 Z M 655.472656 636.59375 "/>
<path style=" stroke:none;fill-rule:nonzero;fill:rgb(92.156863%,92.156863%,92.156863%);fill-opacity:1;" d="M 782.589844 578.960938 C 779.074219 559.894531 779.042969 540.398438 782.589844 521.332031 C 786.132812 540.398438 786.105469 559.894531 782.589844 578.960938 Z M 782.589844 578.960938 "/>
<path style=" stroke:none;fill-rule:nonzero;fill:rgb(92.156863%,92.156863%,92.156863%);fill-opacity:1;" d="M 528.355469 578.960938 C 524.839844 559.894531 524.8125 540.398438 528.355469 521.332031 C 531.902344 540.398438 531.875 559.894531 528.355469 578.960938 Z M 528.355469 578.960938 "/>
<path style=" stroke:none;fill-rule:nonzero;fill:rgb(92.156863%,92.156863%,92.156863%);fill-opacity:1;" d="M 1097.402344 412.136719 C 1025.738281 415.089844 953.023438 415.113281 881.359375 412.136719 C 953.023438 409.15625 1025.738281 409.179688 1097.402344 412.136719 Z M 1097.402344 412.136719 "/>
<path style=" stroke:none;fill-rule:nonzero;fill:rgb(92.156863%,92.156863%,92.156863%);fill-opacity:1;" d="M 1147.933594 354.503906 C 1032.09375 357.453125 914.730469 357.476562 798.894531 354.503906 C 914.730469 351.53125 1032.09375 351.554688 1147.933594 354.503906 Z M 1147.933594 354.503906 "/>
<path style=" stroke:none;fill-rule:nonzero;fill:rgb(92.156863%,92.156863%,92.156863%);fill-opacity:1;" d="M 1037.234375 469.765625 C 1033.71875 450.695312 1033.6875 431.199219 1037.234375 412.132812 C 1040.777344 431.199219 1040.75 450.695312 1037.234375 469.765625 Z M 1037.234375 469.765625 "/>
<path style=" stroke:none;fill-rule:nonzero;fill:rgb(92.156863%,92.156863%,92.156863%);fill-opacity:1;" d="M 910.117188 412.136719 C 906.601562 393.066406 906.574219 373.570312 910.117188 354.503906 C 913.664062 373.570312 913.636719 393.066406 910.117188 412.136719 Z M 910.117188 412.136719 "/>
<path style=" stroke:none;fill-rule:nonzero;fill:rgb(85.882353%,85.882353%,85.882353%);fill-opacity:1;" d="M 1165.890625 336.75 L 1096.089844 636.59375 L 869.855469 636.59375 L 799.957031 336.75 L 883.429688 234.121094 L 857.226562 152.046875 L 1108.820312 152.046875 L 1082.414062 234.121094 Z M 1165.890625 336.75 "/>
<path style=" stroke:none;fill-rule:nonzero;fill:rgb(78.039216%,78.039216%,78.039216%);fill-opacity:1;" d="M 1165.890625 336.742188 L 1160.34375 360.605469 L 805.527344 360.605469 L 799.960938 336.742188 Z M 1165.890625 336.742188 "/>
<path style=" stroke:none;fill-rule:nonzero;fill:rgb(78.039216%,78.039216%,78.039216%);fill-opacity:1;" d="M 1156.945312 375.148438 L 1151.382812 399.082031 L 814.484375 399.082031 L 808.90625 375.148438 Z M 1156.945312 375.148438 "/>
<use xlink:href="#surface5" mask="url(#mask0)"/>
<path style="fill:none;stroke-width:2;stroke-linecap:butt;stroke-linejoin:miter;stroke:rgb(78.039216%,78.039216%,78.039216%);stroke-opacity:1;stroke-miterlimit:10;" d="M 522.013092 162.584093 L 596.411133 162.584093 " transform="matrix(1.706667,0,0,1.44,0,0)"/>
<path style="fill:none;stroke-width:2;stroke-linecap:butt;stroke-linejoin:miter;stroke:rgb(78.039216%,78.039216%,78.039216%);stroke-opacity:1;stroke-miterlimit:10;" d="M 612.419128 162.584093 L 602.229309 162.584093 " transform="matrix(1.706667,0,0,1.44,0,0)"/>
<path style="fill:none;stroke-width:7;stroke-linecap:butt;stroke-linejoin:miter;stroke:rgb(100%,78.039216%,15.294118%);stroke-opacity:1;stroke-miterlimit:10;" d="M 629.056549 182.476128 L 629.056549 160.055881 " transform="matrix(1.706667,0,0,1.44,0,0)"/>
<path style="fill:none;stroke-width:7;stroke-linecap:butt;stroke-linejoin:miter;stroke:rgb(100%,78.039216%,15.294118%);stroke-opacity:1;stroke-miterlimit:10;" d="M 650.509644 191.590712 L 666.362 175.737847 " transform="matrix(1.706667,0,0,1.44,0,0)"/>
<path style="fill:none;stroke-width:7;stroke-linecap:butt;stroke-linejoin:miter;stroke:rgb(100%,78.039216%,15.294118%);stroke-opacity:1;stroke-miterlimit:10;" d="M 659.23233 213.208008 L 681.653595 213.208008 " transform="matrix(1.706667,0,0,1.44,0,0)"/>
<path style=" stroke:none;fill-rule:nonzero;fill:rgb(100%,78.039216%,15.294118%);fill-opacity:1;" d="M 101.625 225.710938 C 161.261719 293.863281 223.445312 372.945312 238.585938 458.40625 C 238.769531 459.703125 236.3125 460.125 235.957031 458.839844 C 229.035156 435.402344 220.277344 412.636719 209.582031 390.414062 C 170.375 381.3125 131.894531 373.832031 111.304688 340.996094 C 90.304688 307.246094 92.972656 263.234375 96.964844 226.46875 C 97.246094 224.5 100.410156 224.402344 101.625 225.710938 Z M 101.625 225.710938 "/>
<use xlink:href="#surface8" mask="url(#mask1)"/>
<path style=" stroke:none;fill-rule:nonzero;fill:rgb(14.901961%,19.607843%,21.960784%);fill-opacity:1;" d="M 208.992188 389.773438 C 182.203125 339.050781 147.808594 288.113281 104.089844 246.402344 C 103.796875 246.121094 103.339844 246.527344 103.613281 246.808594 C 132.234375 276.515625 153.980469 308.871094 175.21875 341.789062 C 155.472656 324.875 133.835938 309.722656 115.132812 291.789062 C 114.765625 291.4375 114.183594 291.945312 114.53125 292.296875 C 133.105469 311.097656 153.394531 331.535156 177.582031 345.453125 C 184.082031 355.550781 190.621094 365.683594 197.253906 375.8125 C 195.628906 375.046875 193.949219 374.363281 192.285156 373.667969 C 191.992188 373.546875 191.730469 373.914062 192.027344 374.039062 C 193.871094 374.828125 195.699219 375.65625 197.601562 376.339844 C 200.742188 381.132812 203.855469 385.929688 207.085938 390.714844 C 207.804688 391.78125 209.558594 390.847656 208.992188 389.773438 Z M 208.992188 389.773438 "/>
<path style=" stroke:none;fill-rule:nonzero;fill:rgb(14.901961%,19.607843%,21.960784%);fill-opacity:1;" d="M 189.0625 372.078125 C 173.082031 364.34375 157.667969 356.035156 143.285156 346.292969 C 142.894531 346.027344 142.328125 346.484375 142.726562 346.765625 C 156.847656 356.855469 171.910156 365.886719 188.40625 373.027344 C 189.144531 373.347656 189.796875 372.429688 189.0625 372.078125 Z M 189.0625 372.078125 "/>
<path style=" stroke:none;fill-rule:nonzero;fill:rgb(100%,78.039216%,15.294118%);fill-opacity:1;" d="M 245.484375 445.707031 C 245.363281 446.742188 243.277344 446.722656 243.304688 445.621094 C 242.996094 417.476562 243.273438 389.203125 242.773438 360.933594 C 234.230469 346.382812 215.886719 338.328125 203.132812 326.667969 C 193.9375 318.253906 186.074219 308.761719 179.347656 298.722656 C 163.574219 274.910156 155.035156 248.140625 151.75 221.085938 C 148.226562 190.980469 161.765625 91.644531 176.808594 95.097656 C 184.605469 96.882812 209.847656 146.085938 216.539062 162.351562 C 227.503906 189.109375 235.21875 216.839844 240.28125 244.820312 C 252.46875 311.054688 251.453125 379.058594 245.484375 445.707031 Z M 245.484375 445.707031 "/>
<use xlink:href="#surface11" mask="url(#mask2)"/>
<path style=" stroke:none;fill-rule:nonzero;fill:rgb(14.901961%,19.607843%,21.960784%);fill-opacity:1;" d="M 245.722656 324.300781 C 245.671875 324.261719 245.625 324.226562 245.574219 324.191406 C 243.746094 288.582031 234.234375 252.621094 225.335938 218.082031 C 215.75 180.875 204.539062 145.839844 181.847656 112.652344 C 181.421875 112.039062 180.34375 112.582031 180.71875 113.207031 C 196.164062 138.882812 207.203125 166.140625 215.65625 194.132812 C 214.136719 192.125 212.289062 190.222656 210.710938 188.328125 C 210.085938 187.585938 208.628906 188.277344 209.242188 189.054688 C 211.464844 191.855469 213.476562 195.125 216.332031 197.5 C 216.429688 197.582031 216.53125 197.589844 216.628906 197.617188 C 224.441406 224.207031 230.046875 251.414062 234.847656 278.546875 C 234.484375 278.203125 234.140625 277.832031 233.777344 277.5 C 233.53125 277.277344 233.117188 277.5625 233.289062 277.816406 C 233.878906 278.71875 234.546875 279.613281 235.199219 280.507812 C 237.617188 294.28125 239.859375 308.027344 242.113281 321.652344 C 213.046875 300.695312 188.226562 275.984375 174.226562 245.542969 C 174.160156 245.40625 173.890625 245.460938 173.949219 245.609375 C 187.667969 277.1875 209.289062 305.253906 242.574219 324.410156 C 243.179688 328.082031 243.789062 331.753906 244.410156 335.40625 C 244.535156 336.167969 245.96875 335.964844 245.964844 335.230469 C 245.953125 331.988281 245.769531 328.734375 245.617188 325.484375 C 246.03125 325.175781 246.226562 324.652344 245.722656 324.300781 Z M 245.722656 324.300781 "/>
<path style=" stroke:none;fill-rule:nonzero;fill:rgb(14.901961%,19.607843%,21.960784%);fill-opacity:1;" d="M 232.035156 272.703125 C 209.820312 244.734375 189.074219 217.570312 172.820312 186.652344 C 172.644531 186.308594 171.9375 186.554688 172.097656 186.910156 C 185.792969 217.628906 204.976562 248.753906 230.921875 273.425781 C 231.449219 273.929688 232.480469 273.269531 232.035156 272.703125 Z M 232.035156 272.703125 "/>
<path style=" stroke:none;fill-rule:nonzero;fill:rgb(14.901961%,19.607843%,21.960784%);fill-opacity:1;" d="M 202.515625 179.746094 C 193.3125 166.007812 183.609375 152.640625 174.949219 138.632812 C 174.707031 138.242188 174.070312 138.589844 174.265625 138.972656 C 181.53125 153.289062 190.214844 167.824219 201.09375 180.445312 C 201.707031 181.152344 203.046875 180.539062 202.515625 179.746094 Z M 202.515625 179.746094 "/>
<path style=" stroke:none;fill-rule:nonzero;fill:rgb(14.901961%,19.607843%,21.960784%);fill-opacity:1;" d="M 206.109375 185.71875 C 205.925781 185.71875 205.925781 185.960938 206.109375 185.960938 C 206.292969 185.960938 206.292969 185.71875 206.109375 185.71875 Z M 206.109375 185.71875 "/>
<path style=" stroke:none;fill-rule:nonzero;fill:rgb(100%,78.039216%,15.294118%);fill-opacity:1;" d="M 268.0625 364.316406 C 268.628906 382.964844 271.015625 401.613281 275.855469 419.761719 C 275.511719 421.765625 275.167969 423.765625 274.820312 425.832031 C 267.855469 405.632812 264.214844 384.929688 263.066406 364.027344 C 262.6875 363.449219 262.53125 362.824219 262.964844 362.117188 C 262.964844 362.117188 262.964844 362.117188 262.96875 362.054688 C 261.707031 334.148438 264.777344 305.929688 270.332031 278.316406 C 280.65625 226.59375 303.226562 176.957031 345.980469 138.191406 C 347.332031 136.996094 350.039062 137.617188 350.703125 139.011719 C 367.949219 176.023438 361.933594 220.1875 347.238281 257.109375 C 339.242188 277 327.828125 296.097656 313.335938 313.199219 C 298.671875 330.597656 279.976562 345.316406 268.0625 364.316406 Z M 268.0625 364.316406 "/>
<use xlink:href="#surface14" mask="url(#mask3)"/>
<path style=" stroke:none;fill-rule:nonzero;fill:rgb(14.901961%,19.607843%,21.960784%);fill-opacity:1;" d="M 340.921875 155.511719 C 300.40625 210.992188 272.214844 276.773438 268.769531 342.3125 C 268.710938 343.472656 271.027344 343.78125 271.21875 342.59375 C 272.175781 336.707031 273.246094 330.867188 274.363281 325.058594 C 274.386719 325.039062 274.410156 325.050781 274.433594 325.035156 C 291.195312 311.488281 308.402344 297.199219 320.40625 280.269531 C 320.617188 279.972656 320.109375 279.621094 319.828125 279.894531 C 305.246094 293.957031 291.636719 308.363281 275.171875 320.902344 C 278.074219 306.410156 281.511719 292.152344 285.582031 278.101562 C 286.667969 277.054688 287.722656 275.976562 288.789062 274.921875 C 289.492188 274.226562 288.320312 273.214844 287.585938 273.90625 C 287.265625 274.214844 286.9375 274.515625 286.613281 274.816406 C 292.355469 255.523438 299.359375 236.632812 307.796875 218.070312 C 318.109375 207.6875 329.640625 198.71875 337.152344 186.214844 C 337.339844 185.910156 336.847656 185.675781 336.617188 185.949219 C 330.578125 193.101562 324.734375 200.292969 317.878906 206.929688 C 315.148438 209.570312 312.152344 212.042969 309.320312 214.625 C 318.539062 194.8125 329.480469 175.386719 342.492188 156.285156 C 343.070312 155.429688 341.535156 154.675781 340.921875 155.511719 Z M 340.921875 155.511719 "/>
<path style=" stroke:none;fill-rule:nonzero;fill:rgb(14.901961%,19.607843%,21.960784%);fill-opacity:1;" d="M 332.734375 223.953125 C 319.636719 238.824219 304.710938 253.015625 292.539062 268.382812 C 292.191406 268.824219 292.949219 269.273438 293.382812 268.933594 C 309.027344 256.550781 322.265625 239.640625 333.613281 224.386719 C 333.972656 223.90625 333.113281 223.519531 332.734375 223.953125 Z M 332.734375 223.953125 "/>
<path style=" stroke:none;fill-rule:nonzero;fill:rgb(14.901961%,19.607843%,21.960784%);fill-opacity:1;" d="M 290.703125 271.824219 L 290.148438 272.296875 C 289.757812 272.625 290.359375 273.132812 290.746094 272.804688 L 291.304688 272.332031 C 291.691406 272.007812 291.089844 271.5 290.703125 271.824219 Z M 290.703125 271.824219 "/>
<path style=" stroke:none;fill-rule:nonzero;fill:rgb(100%,78.039216%,15.294118%);fill-opacity:1;" d="M 404.402344 262.167969 C 401.148438 290.714844 383.347656 324.8125 361.648438 346.804688 C 352.027344 356.53125 340.363281 363.972656 326.976562 369.632812 C 311.960938 375.902344 296.238281 383.121094 280.703125 388.265625 C 273.441406 403.910156 267.886719 420.292969 264.320312 437.367188 C 263.820312 435.941406 263.320312 434.449219 262.820312 433.019531 C 272.792969 360.75 328.214844 298.980469 399.113281 259.328125 C 401.664062 257.894531 404.683594 259.730469 404.402344 262.167969 Z M 404.402344 262.167969 "/>
<use xlink:href="#surface17" mask="url(#mask4)"/>
<path style=" stroke:none;fill-rule:nonzero;fill:rgb(14.901961%,19.607843%,21.960784%);fill-opacity:1;" d="M 379.90625 283.523438 C 380.402344 283.148438 379.730469 282.394531 379.183594 282.734375 C 341.613281 306.214844 307.761719 340.457031 288.851562 376.667969 C 288.332031 377.660156 289.945312 378.527344 290.609375 377.539062 C 293.90625 372.667969 297.265625 367.925781 300.683594 363.273438 C 300.703125 363.269531 300.714844 363.28125 300.730469 363.28125 C 316.914062 360.707031 332.238281 351.097656 344.25 341.976562 C 344.574219 341.730469 344.097656 341.332031 343.769531 341.574219 C 337.5 346.238281 330.765625 350.503906 323.296875 353.707031 C 316.699219 356.535156 309.597656 358.316406 302.730469 360.578125 C 308.730469 352.546875 314.980469 344.84375 321.503906 337.375 C 338.921875 332.371094 355.503906 323.347656 370.136719 314.308594 C 370.597656 314.023438 370.191406 313.386719 369.679688 313.644531 C 354.761719 321.222656 340.054688 327.890625 324.480469 334.035156 C 334.292969 323.066406 344.910156 312.683594 356.394531 302.640625 C 361.890625 300.191406 367.46875 297.730469 372.800781 295.109375 C 373.234375 294.894531 372.949219 294.269531 372.453125 294.40625 C 368.207031 295.601562 363.882812 297.476562 359.863281 299.628906 C 366.257812 294.167969 372.847656 288.777344 379.90625 283.523438 Z M 379.90625 283.523438 "/>
<path style=" stroke:none;fill-rule:nonzero;fill:rgb(14.901961%,19.607843%,21.960784%);fill-opacity:1;" d="M 378.398438 308.476562 C 377.421875 309 376.535156 309.472656 375.671875 310.117188 C 375.410156 310.3125 375.742188 310.59375 376.015625 310.496094 C 377.050781 310.109375 377.902344 309.648438 378.855469 309.132812 C 379.347656 308.871094 378.890625 308.210938 378.398438 308.476562 Z M 378.398438 308.476562 "/>
<path style=" stroke:none;fill-rule:nonzero;fill:rgb(27.058824%,35.294118%,39.215686%);fill-opacity:1;" d="M 344.953125 451.164062 L 147.09375 451.164062 L 166.570312 636.59375 L 325.476562 636.59375 Z M 344.953125 451.164062 "/>
<path style=" stroke:none;fill-rule:nonzero;fill:rgb(27.058824%,35.294118%,39.215686%);fill-opacity:1;" d="M 129.085938 413.1875 L 362.960938 413.1875 L 362.960938 451.164062 L 129.085938 451.164062 Z M 129.085938 413.1875 "/>
<use xlink:href="#surface20" mask="url(#mask5)"/>
<path style=" stroke:none;fill-rule:nonzero;fill:rgb(100%,78.039216%,15.294118%);fill-opacity:1;" d="M 184.683594 288.683594 L 1095.316406 288.683594 L 1095.316406 621.625 L 184.683594 621.625 Z M 184.683594 288.683594 "/>
<path style=" stroke:none;fill-rule:nonzero;fill:rgb(14.901961%,19.607843%,21.960784%);fill-opacity:1;" d="M 206.410156 307.019531 L 1073.589844 307.019531 L 1073.589844 574.492188 L 206.410156 574.492188 Z M 206.410156 307.019531 "/>
<path style=" stroke:none;fill-rule:nonzero;fill:rgb(100%,78.039216%,15.294118%);fill-opacity:1;" d="M 938 380.453125 L 938 393.8125 L 933 398.03125 L 931.335938 396.625 L 931.335938 378.34375 Z M 938 403.65625 L 938 418.421875 L 935.5 424.046875 C 933.277344 423.582031 931.886719 422.40625 931.332031 420.53125 L 931.332031 400.84375 L 933 399.4375 Z M 958 379.046875 L 938.082031 379.046875 L 931.417969 376.9375 C 931.972656 375.0625 933.359375 373.890625 935.585938 373.421875 L 960.5 373.421875 Z M 959.667969 395.921875 L 963 398.734375 L 959.667969 401.546875 L 938 401.546875 L 934.667969 398.734375 L 938 395.921875 Z M 959.667969 393.8125 L 959.667969 379.046875 L 962.167969 373.421875 C 964.390625 373.890625 965.777344 375.0625 966.332031 376.9375 L 966.332031 396.625 L 964.667969 398.03125 Z M 964.667969 399.4375 L 966.335938 400.84375 L 966.335938 420.53125 C 965.78125 422.40625 964.390625 423.578125 962.171875 424.046875 L 959.667969 418.421875 L 959.667969 403.65625 Z M 964.667969 399.4375 "/>
<path style=" stroke:none;fill-rule:nonzero;fill:rgb(100%,78.039216%,15.294118%);fill-opacity:1;" d="M 981.335938 380.453125 L 981.335938 393.8125 L 976.335938 398.03125 L 974.671875 396.625 L 974.671875 378.34375 Z M 981.335938 403.65625 L 981.335938 418.421875 L 978.839844 424.046875 C 976.613281 423.582031 975.226562 422.40625 974.671875 420.53125 L 974.671875 400.84375 L 976.335938 399.4375 Z M 1001.335938 379.046875 L 981.417969 379.046875 L 974.753906 376.9375 C 975.308594 375.0625 976.695312 373.890625 978.921875 373.421875 L 1003.835938 373.421875 Z M 995.503906 396.625 L 992.171875 399.4375 L 988.835938 396.625 L 988.835938 380.453125 L 995.503906 380.453125 Z M 1003.003906 393.8125 L 1003.003906 379.046875 L 1005.503906 373.421875 C 1007.726562 373.890625 1009.113281 375.0625 1009.667969 376.9375 L 1009.667969 396.625 L 1008.003906 398.03125 Z M 1008.003906 399.4375 L 1009.667969 400.84375 L 1009.667969 420.53125 C 1009.113281 422.40625 1007.726562 423.578125 1005.503906 424.046875 L 1003.003906 418.421875 L 1003.003906 403.65625 Z M 1008.003906 399.4375 "/>
<path style=" stroke:none;fill-rule:nonzero;fill:rgb(0%,0%,0%);fill-opacity:1;" d="M 958 463.695312 L 938 463.695312 L 931.335938 461.585938 L 931.335938 458.066406 L 958 458.066406 L 961.335938 460.878906 Z M 938 465.101562 L 938 478.460938 L 933 482.679688 L 931.335938 481.273438 L 931.335938 462.992188 Z M 938 488.304688 L 938 503.070312 L 935.5 508.695312 C 933.277344 508.226562 931.886719 507.054688 931.332031 505.179688 L 931.332031 485.492188 L 933 484.085938 Z M 959.667969 480.570312 L 963 483.382812 L 959.667969 486.195312 L 938 486.195312 L 934.667969 483.382812 L 938 480.570312 Z M 959.667969 478.460938 L 959.667969 463.695312 L 962.167969 461.585938 L 966.332031 465.097656 L 966.332031 481.273438 L 964.667969 482.679688 Z M 959.667969 478.460938 "/>
<path style=" stroke:none;fill-rule:nonzero;fill:rgb(0%,0%,0%);fill-opacity:1;" d="M 981.335938 465.101562 L 981.335938 478.460938 L 976.335938 482.679688 L 974.671875 481.273438 L 974.671875 462.992188 Z M 981.335938 488.304688 L 981.335938 503.070312 L 978.839844 508.695312 C 976.613281 508.226562 975.226562 507.054688 974.671875 505.179688 L 974.671875 485.492188 L 976.335938 484.085938 Z M 1001.335938 463.695312 L 981.417969 463.695312 L 974.753906 461.585938 C 975.308594 459.707031 976.695312 458.535156 978.921875 458.066406 L 1003.835938 458.066406 Z M 995.503906 481.273438 L 992.171875 484.085938 L 988.835938 481.273438 L 988.835938 465.101562 L 995.503906 465.101562 Z M 1003.003906 478.460938 L 1003.003906 463.695312 L 1005.503906 458.070312 C 1007.726562 458.539062 1009.113281 459.710938 1009.667969 461.585938 L 1009.667969 481.273438 L 1008.003906 482.679688 Z M 1008.003906 484.085938 L 1009.667969 485.492188 L 1009.667969 505.179688 C 1009.113281 507.054688 1007.726562 508.226562 1005.503906 508.695312 L 1003.003906 503.070312 L 1003.003906 488.304688 Z M 1008.003906 484.085938 "/>
<path style=" stroke:none;fill-rule:nonzero;fill:rgb(0%,0%,0%);fill-opacity:1;" d="M 319.535156 393.535156 L 319.535156 427.933594 L 307.867188 439.070312 L 301.6875 433.355469 L 301.6875 382.308594 L 304.265625 379.125 Z M 319.535156 393.535156 "/>
<path style=" stroke:none;fill-rule:nonzero;fill:rgb(100%,78.039216%,15.294118%);fill-opacity:1;" d="M 395.398438 382.308594 L 395.398438 432.703125 L 389.070312 438.839844 L 377.550781 427.949219 L 377.550781 393.535156 L 392.816406 379.125 Z M 395.398438 382.308594 "/>
<path style=" stroke:none;fill-rule:nonzero;fill:rgb(0%,0%,0%);fill-opacity:1;" d="M 386.335938 441.03125 L 376.4375 450.609375 L 320.847656 450.609375 L 310.472656 441.03125 L 320.367188 431.453125 L 375.957031 431.453125 Z M 386.335938 441.03125 "/>
<path style=" stroke:none;fill-rule:nonzero;fill:rgb(0%,0%,0%);fill-opacity:1;" d="M 390.460938 376.152344 L 377.550781 388.699219 L 319.535156 388.699219 L 306.625 376.152344 L 309.480469 372.300781 L 387.605469 372.300781 Z M 390.460938 376.152344 "/>
<path style=" stroke:none;fill-rule:nonzero;fill:rgb(100%,78.039216%,15.294118%);fill-opacity:1;" d="M 395.398438 449.402344 L 395.398438 500.238281 L 392.816406 503.421875 L 377.550781 489.011719 L 377.550781 454.535156 L 389.144531 443.621094 Z M 395.398438 449.402344 "/>
<path style=" stroke:none;fill-rule:nonzero;fill:rgb(0%,0%,0%);fill-opacity:1;" d="M 319.535156 454.539062 L 319.535156 489.011719 L 304.265625 503.421875 L 301.6875 500.238281 L 301.6875 449.550781 L 307.917969 443.515625 Z M 319.535156 454.539062 "/>
<path style=" stroke:none;fill-rule:nonzero;fill:rgb(0%,0%,0%);fill-opacity:1;" d="M 306.625 505.960938 L 319.535156 493.414062 L 377.550781 493.414062 L 390.460938 505.960938 L 387.605469 509.816406 L 309.480469 509.816406 Z M 306.625 505.960938 "/>
<path style=" stroke:none;fill-rule:nonzero;fill:rgb(0%,0%,0%);fill-opacity:1;" d="M 447.828125 393.535156 L 447.828125 427.933594 L 436.160156 439.070312 L 429.980469 433.355469 L 429.980469 382.308594 L 432.5625 379.125 Z M 447.828125 393.535156 "/>
<path style=" stroke:none;fill-rule:nonzero;fill:rgb(100%,78.039216%,15.294118%);fill-opacity:1;" d="M 523.695312 382.308594 L 523.695312 432.703125 L 517.363281 438.839844 L 505.84375 427.949219 L 505.84375 393.535156 L 521.113281 379.125 Z M 523.695312 382.308594 "/>
<path style=" stroke:none;fill-rule:nonzero;fill:rgb(0%,0%,0%);fill-opacity:1;" d="M 514.628906 441.03125 L 504.730469 450.609375 L 449.140625 450.609375 L 438.765625 441.03125 L 448.664062 431.453125 L 504.25 431.453125 Z M 514.628906 441.03125 "/>
<path style=" stroke:none;fill-rule:nonzero;fill:rgb(0%,0%,0%);fill-opacity:1;" d="M 518.753906 376.152344 L 505.84375 388.699219 L 447.828125 388.699219 L 434.921875 376.152344 L 437.773438 372.300781 L 515.898438 372.300781 Z M 518.753906 376.152344 "/>
<path style=" stroke:none;fill-rule:nonzero;fill:rgb(100%,78.039216%,15.294118%);fill-opacity:1;" d="M 523.695312 449.402344 L 523.695312 500.238281 L 521.113281 503.421875 L 505.84375 489.011719 L 505.84375 454.535156 L 517.4375 443.621094 Z M 523.695312 449.402344 "/>
<path style=" stroke:none;fill-rule:nonzero;fill:rgb(0%,0%,0%);fill-opacity:1;" d="M 447.828125 454.539062 L 447.828125 489.011719 L 432.5625 503.421875 L 429.980469 500.238281 L 429.980469 449.550781 L 436.210938 443.515625 Z M 447.828125 454.539062 "/>
<path style=" stroke:none;fill-rule:nonzero;fill:rgb(0%,0%,0%);fill-opacity:1;" d="M 434.921875 505.960938 L 447.828125 493.414062 L 505.84375 493.414062 L 518.753906 505.960938 L 515.898438 509.816406 L 437.773438 509.816406 Z M 434.921875 505.960938 "/>
<path style=" stroke:none;fill-rule:nonzero;fill:rgb(0%,0%,0%);fill-opacity:1;" d="M 628.558594 393.535156 L 628.558594 427.933594 L 616.890625 439.070312 L 610.710938 433.355469 L 610.710938 382.308594 L 613.292969 379.125 Z M 628.558594 393.535156 "/>
<path style=" stroke:none;fill-rule:nonzero;fill:rgb(100%,78.039216%,15.294118%);fill-opacity:1;" d="M 704.425781 382.308594 L 704.425781 432.703125 L 698.09375 438.839844 L 686.578125 427.949219 L 686.578125 393.535156 L 701.84375 379.125 Z M 704.425781 382.308594 "/>
<path style=" stroke:none;fill-rule:nonzero;fill:rgb(100%,78.039216%,15.294118%);fill-opacity:1;" d="M 695.359375 441.03125 L 685.460938 450.609375 L 629.871094 450.609375 L 619.496094 441.03125 L 629.394531 431.453125 L 684.984375 431.453125 Z M 695.359375 441.03125 "/>
<path style=" stroke:none;fill-rule:nonzero;fill:rgb(100%,78.039216%,15.294118%);fill-opacity:1;" d="M 699.484375 376.152344 L 686.574219 388.699219 L 628.558594 388.699219 L 615.652344 376.152344 L 618.507812 372.300781 L 696.628906 372.300781 Z M 699.484375 376.152344 "/>
<path style=" stroke:none;fill-rule:nonzero;fill:rgb(100%,78.039216%,15.294118%);fill-opacity:1;" d="M 704.425781 449.402344 L 704.425781 500.238281 L 701.84375 503.421875 L 686.578125 489.011719 L 686.578125 454.535156 L 698.167969 443.621094 Z M 704.425781 449.402344 "/>
<path style=" stroke:none;fill-rule:nonzero;fill:rgb(0%,0%,0%);fill-opacity:1;" d="M 628.558594 454.539062 L 628.558594 489.011719 L 613.292969 503.421875 L 610.710938 500.238281 L 610.710938 449.550781 L 616.941406 443.515625 Z M 628.558594 454.539062 "/>
<path style=" stroke:none;fill-rule:nonzero;fill:rgb(100%,78.039216%,15.294118%);fill-opacity:1;" d="M 615.652344 505.960938 L 628.558594 493.414062 L 686.574219 493.414062 L 699.484375 505.960938 L 696.628906 509.816406 L 618.507812 509.816406 Z M 615.652344 505.960938 "/>
<path style=" stroke:none;fill-rule:nonzero;fill:rgb(100%,78.039216%,15.294118%);fill-opacity:1;" d="M 756.859375 393.535156 L 756.859375 427.933594 L 745.191406 439.070312 L 739.007812 433.355469 L 739.007812 382.308594 L 741.589844 379.125 Z M 756.859375 393.535156 "/>
<path style=" stroke:none;fill-rule:nonzero;fill:rgb(100%,78.039216%,15.294118%);fill-opacity:1;" d="M 832.722656 382.308594 L 832.722656 432.703125 L 826.394531 438.839844 L 814.875 427.949219 L 814.875 393.535156 L 830.140625 379.125 Z M 832.722656 382.308594 "/>
<path style=" stroke:none;fill-rule:nonzero;fill:rgb(100%,78.039216%,15.294118%);fill-opacity:1;" d="M 823.65625 441.03125 L 813.761719 450.609375 L 758.171875 450.609375 L 747.792969 441.03125 L 757.691406 431.453125 L 813.28125 431.453125 Z M 823.65625 441.03125 "/>
<path style=" stroke:none;fill-rule:nonzero;fill:rgb(0%,0%,0%);fill-opacity:1;" d="M 827.78125 376.152344 L 814.875 388.699219 L 756.859375 388.699219 L 743.949219 376.152344 L 746.804688 372.300781 L 824.925781 372.300781 Z M 827.78125 376.152344 "/>
<path style=" stroke:none;fill-rule:nonzero;fill:rgb(100%,78.039216%,15.294118%);fill-opacity:1;" d="M 832.722656 449.402344 L 832.722656 500.238281 L 830.140625 503.421875 L 814.875 489.011719 L 814.875 454.535156 L 826.46875 443.621094 Z M 832.722656 449.402344 "/>
<path style=" stroke:none;fill-rule:nonzero;fill:rgb(0%,0%,0%);fill-opacity:1;" d="M 756.859375 454.539062 L 756.859375 489.011719 L 741.589844 503.421875 L 739.007812 500.238281 L 739.007812 449.550781 L 745.238281 443.515625 Z M 756.859375 454.539062 "/>
<path style=" stroke:none;fill-rule:nonzero;fill:rgb(0%,0%,0%);fill-opacity:1;" d="M 743.949219 505.960938 L 756.859375 493.414062 L 814.875 493.414062 L 827.78125 505.960938 L 824.925781 509.816406 L 746.804688 509.816406 Z M 743.949219 505.960938 "/>
<path style=" stroke:none;fill-rule:nonzero;fill:rgb(0%,0%,0%);fill-opacity:1;" d="M 576.125 419.449219 L 558.273438 419.449219 L 558.273438 404.390625 L 576.125 404.390625 Z M 576.125 479.695312 L 558.273438 479.695312 L 558.273438 464.632812 L 576.125 464.632812 Z M 576.125 479.695312 "/>
<use xlink:href="#surface23" mask="url(#mask6)"/>
<path style=" stroke:none;fill-rule:nonzero;fill:rgb(100%,78.039216%,15.294118%);fill-opacity:1;" d="M 526.886719 588 L 577.554688 588 L 577.554688 608.113281 L 526.886719 608.113281 Z M 526.886719 588 "/>
<use xlink:href="#surface26" mask="url(#mask7)"/>
<path style=" stroke:none;fill-rule:nonzero;fill:rgb(100%,100%,100%);fill-opacity:1;" d="M 577.554688 588 L 526.886719 588 L 526.886719 590.277344 Z M 577.554688 588 "/>
<path style=" stroke:none;fill-rule:nonzero;fill:rgb(100%,100%,100%);fill-opacity:1;" d="M 526.886719 608.113281 L 529.585938 588 L 526.886719 588 Z M 526.886719 608.113281 "/>
<path style=" stroke:none;fill-rule:nonzero;fill:rgb(27.058824%,35.294118%,39.215686%);fill-opacity:1;" d="M 614.667969 588 L 665.332031 588 L 665.332031 608.113281 L 614.667969 608.113281 Z M 614.667969 588 "/>
<use xlink:href="#surface29" mask="url(#mask8)"/>
<path style=" stroke:none;fill-rule:nonzero;fill:rgb(100%,100%,100%);fill-opacity:1;" d="M 665.332031 588 L 614.667969 588 L 614.667969 590.277344 Z M 665.332031 588 "/>
<path style=" stroke:none;fill-rule:nonzero;fill:rgb(100%,100%,100%);fill-opacity:1;" d="M 614.667969 608.113281 L 617.363281 588 L 614.667969 588 Z M 614.667969 608.113281 "/>
<path style=" stroke:none;fill-rule:nonzero;fill:rgb(100%,78.039216%,15.294118%);fill-opacity:1;" d="M 702.445312 588 L 753.113281 588 L 753.113281 608.113281 L 702.445312 608.113281 Z M 702.445312 588 "/>
<use xlink:href="#surface32" mask="url(#mask9)"/>
<path style=" stroke:none;fill-rule:nonzero;fill:rgb(100%,100%,100%);fill-opacity:1;" d="M 753.113281 588 L 702.445312 588 L 702.445312 590.277344 Z M 753.113281 588 "/>
<path style=" stroke:none;fill-rule:nonzero;fill:rgb(100%,100%,100%);fill-opacity:1;" d="M 702.445312 608.113281 L 705.144531 588 L 702.445312 588 Z M 702.445312 608.113281 "/>
<path style=" stroke:none;fill-rule:nonzero;fill:rgb(100%,78.039216%,15.294118%);fill-opacity:1;" d="M 320.085938 621.625 L 440.0625 621.625 L 440.0625 636.59375 L 320.085938 636.59375 Z M 320.085938 621.625 "/>
<use xlink:href="#surface35" mask="url(#mask10)"/>
<path style=" stroke:none;fill-rule:nonzero;fill:rgb(100%,78.039216%,15.294118%);fill-opacity:1;" d="M 839.9375 621.625 L 959.914062 621.625 L 959.914062 636.59375 L 839.9375 636.59375 Z M 839.9375 621.625 "/>
<use xlink:href="#surface38" mask="url(#mask11)"/>
<path style=" stroke:none;fill-rule:nonzero;fill:rgb(14.901961%,19.607843%,21.960784%);fill-opacity:1;" d="M 480.042969 273.714844 L 799.957031 273.714844 L 799.957031 288.683594 L 480.042969 288.683594 Z M 480.042969 273.714844 "/>
<path style=" stroke:none;fill-rule:nonzero;fill:rgb(14.901961%,19.607843%,21.960784%);fill-opacity:1;" d="M 128.34375 636.59375 C 456.144531 635.710938 823.859375 635.703125 1151.660156 636.59375 C 823.855469 637.480469 456.140625 637.472656 128.34375 636.59375 Z M 128.34375 636.59375 "/>
</g>
</svg>
